/* XPM */
static char * close_pressed_xpm[] = {
"24 36 85 1",
" 	c None",
".	c #E0E0E0",
"+	c #EEEFF2",
"@	c #E8E9EC",
"#	c #E7E2E6",
"$	c #E4C7CC",
"%	c #DD8088",
"&	c #D84D59",
"*	c #D63542",
"=	c #D84E5A",
"-	c #DD818A",
";	c #E5CACF",
">	c #E7E3E6",
",	c #E4C4C9",
"'	c #DB6872",
")	c #D52735",
"!	c #DB6974",
"~	c #E4C8CD",
"{	c #E2ADB4",
"]	c #D73C49",
"^	c #D73D4A",
"/	c #E3BBC0",
"(	c #D73B48",
"_	c #D62735",
":	c #D6323F",
"<	c #E6D7DB",
"[	c #E7E2E5",
"}	c #DB646F",
"|	c #D32735",
"1	c #C62432",
"2	c #D42735",
"3	c #C52432",
"4	c #D12634",
"5	c #D95460",
"6	c #E4C3C8",
"7	c #C42432",
"8	c #9C1D2B",
"9	c #B92230",
"0	c #B82230",
"a	c #9C1C2A",
"b	c #C02331",
"c	c #D72735",
"d	c #E2B5BB",
"e	c #DC7881",
"f	c #9F1D2B",
"g	c #D72836",
"h	c #B72230",
"i	c #9D1D2B",
"j	c #BA2230",
"k	c #DA616C",
"l	c #D74551",
"m	c #B4212F",
"n	c #BC2230",
"o	c #D73D49",
"p	c #D52C3A",
"q	c #B2212F",
"r	c #9E1D2B",
"s	c #D63341",
"t	c #A11D2B",
"u	c #D63340",
"v	c #D74450",
"w	c #DC7781",
"x	c #BD2331",
"y	c #B5212F",
"z	c #D62836",
"A	c #B42230",
"B	c #BE2331",
"C	c #E2B0B6",
"D	c #DA626C",
"E	c #D02634",
"F	c #BF2331",
"G	c #CE2533",
"H	c #D9535E",
"I	c #E4C5CA",
"J	c #E5CFD4",
"K	c #E3B8BE",
"L	c #D52F3C",
"M	c #D63A47",
"N	c #E3BDC3",
"O	c #E5D4D8",
"P	c #D84C58",
"Q	c #D9505B",
"R	c #E2AEB4",
"S	c #D7414E",
"T	c #D7404D",
"........................",
"++++++++++++++++++++++++",
"@@@@@@@@@@@@@@@@@@@@@@@@",
"@@@@@@@@@@@@@@@@@@@@@@@@",
"@@@@@@@@@@@@@@@@@@@@@@@@",
"@@@@@@@@@@@@@@@@@@@@@@@@",
"@@@@@@@@@@@@@@@@@@@@@@@@",
"@@@@@@@#$%&**=-;>@@@@@@@",
"@@@@@@,'))))))))!~@@@@@@",
"@@@@@{]))))))))))^/@@@@@",
"@@@@,())_))))))_)):<@@@@",
"@@@[}))|12)))))34))5@@@@",
"@@@6))_7892))20abc))d@@@",
"@@@e)))20f0g2hij2)))k@@@",
"@@@l))))2hfm9in2))))o@@@",
"@@@p)))))gqrr02)))))s@@@",
"@@@p)))))29rtj2)))))u@@@",
"@@@v))))2hi9jf0_))))]@@@",
"@@@w))))0ix220fyg)))k@@@",
"@@@6))_78j2))zAfBc))C@@@",
"@@@>D))EF2))))gxG_)H@@@@",
"@@@@I())c))))))c_)(J@@@@",
"@@@@@KL))))))))))MN@@@@@",
"@@@@@@OP))))))))QJ@@@@@@",
"@@@@@@@@RDSuuT}R@@@@@@@@",
"@@@@@@@@@@@@@@@@@@@@@@@@",
"@@@@@@@@@@@@@@@@@@@@@@@@",
"@@@@@@@@@@@@@@@@@@@@@@@@",
"@@@@@@@@@@@@@@@@@@@@@@@@",
"@@@@@@@@@@@@@@@@@@@@@@@@",
"@@@@@@@@@@@@@@@@@@@@@@@@",
"@@@@@@@@@@@@@@@@@@@@@@@@",
"@@@@@@@@@@@@@@@@@@@@@@@@",
"@@@@@@@@@@@@@@@@@@@@@@@@",
"@@@@@@@@@@@@@@@@@@@@@@@@",
"@@@@@@@@@@@@@@@@@@@@@@@@"};
