/* XPM */
static char * close_active_xpm[] = {
"24 36 89 1",
" 	c None",
".	c #E0E0E0",
"+	c #EEEFF2",
"@	c #E8E9EC",
"#	c #E7E2E6",
"$	c #E4C7CC",
"%	c #DE818A",
"&	c #DA4F5B",
"*	c #D83744",
"=	c #D83844",
"-	c #DA505C",
";	c #DE828A",
">	c #E5CACF",
",	c #E7E3E6",
"'	c #E3C3C8",
")	c #DE6B75",
"!	c #E03641",
"~	c #E9434C",
"{	c #F04D54",
"]	c #F35258",
"^	c #F45258",
"/	c #DF3540",
"(	c #DE6C76",
"_	c #E0AAB1",
":	c #DD4651",
"<	c #EB464E",
"[	c #F25156",
"}	c #F35157",
"|	c #F25056",
"1	c #EB454E",
"2	c #E3BAC0",
"3	c #E3C2C8",
"4	c #DE4550",
"5	c #EF4C53",
"6	c #EF4B52",
"7	c #DA3944",
"8	c #E6D8DC",
"9	c #E7E2E5",
"0	c #DD6872",
"a	c #DA5460",
"b	c #E4C3C9",
"c	c #E03742",
"d	c #F45358",
"e	c #E2B3B9",
"f	c #DE7A82",
"g	c #EA444D",
"h	c #EE4A51",
"i	c #D95E6A",
"j	c #D94754",
"k	c #F14F55",
"l	c #F35156",
"m	c #D8404C",
"n	c #D8303D",
"o	c #DC3C48",
"p	c #D8313C",
"q	c #DC3B47",
"r	c #D83E4A",
"s	c #DE7982",
"t	c #EE4A52",
"u	c #D9606B",
"v	c #E4C4C9",
"w	c #E03741",
"x	c #F35257",
"y	c #E1AFB6",
"z	c #DD6670",
"A	c #DA535F",
"B	c #E3C4C9",
"C	c #DD444F",
"D	c #EE4951",
"E	c #DC424E",
"F	c #E5CFD4",
"G	c #E2B7BD",
"H	c #DA3642",
"I	c #EC474F",
"J	c #DC414D",
"K	c #E3BDC3",
"L	c #E6D5D9",
"M	c #D84D58",
"N	c #EE4B52",
"O	c #E13742",
"P	c #D9505C",
"Q	c #E5D0D4",
"R	c #E1ADB4",
"S	c #D9616C",
"T	c #DB4652",
"U	c #DD3C47",
"V	c #DA4550",
"W	c #D9636E",
"X	c #E1ADB3",
"........................",
"++++++++++++++++++++++++",
"@@@@@@@@@@@@@@@@@@@@@@@@",
"@@@@@@@@@@@@@@@@@@@@@@@@",
"@@@@@@@@@@@@@@@@@@@@@@@@",
"@@@@@@@@@@@@@@@@@@@@@@@@",
"@@@@@@@@@@@@@@@@@@@@@@@@",
"@@@@@@@#$%&*=-;>,@@@@@@@",
"@@@@@@')!~{]^{~/($@@@@@@",
"@@@@@_:<[}||||}}1:2@@@@@",
"@@@@345||||||||||678@@@@",
"@@@90<|||||||||||}<a@@@@",
"@@@bc}||||||||||||d/e@@@",
"@@@fg}|||||||||||||hi@@@",
"@@@jk||||||||||||||lm@@@",
"@@@nd||||||||||||||[o@@@",
"@@@pd||||||||||||||[q@@@",
"@@@jk||||||||||||||}r@@@",
"@@@sg}|||||||||||||tu@@@",
"@@@vw}||||||||||||x!y@@@",
"@@@,z<|||||||||||}<A@@@@",
"@@@@BC5}||||||||}DEF@@@@",
"@@@@@GHId||||||xIJK@@@@@",
"@@@@@@LM!6||||NOPQ@@@@@@",
"@@@@@@@@RSToUVWX@@@@@@@@",
"@@@@@@@@@@@@@@@@@@@@@@@@",
"@@@@@@@@@@@@@@@@@@@@@@@@",
"@@@@@@@@@@@@@@@@@@@@@@@@",
"@@@@@@@@@@@@@@@@@@@@@@@@",
"@@@@@@@@@@@@@@@@@@@@@@@@",
"@@@@@@@@@@@@@@@@@@@@@@@@",
"@@@@@@@@@@@@@@@@@@@@@@@@",
"@@@@@@@@@@@@@@@@@@@@@@@@",
"@@@@@@@@@@@@@@@@@@@@@@@@",
"@@@@@@@@@@@@@@@@@@@@@@@@",
"@@@@@@@@@@@@@@@@@@@@@@@@"};
