/* XPM */
static char * close_prelight_xpm[] = {
"24 36 99 2",
"  	c None",
". 	c #E0E0E0",
"+ 	c #EEEFF2",
"@ 	c #E8E9EC",
"# 	c #E7E2E5",
"$ 	c #E4C2C7",
"% 	c #DE7982",
"& 	c #D94753",
"* 	c #D8303D",
"= 	c #D8313D",
"- 	c #D94854",
"; 	c #DE7A82",
"> 	c #E4C4C9",
", 	c #E7E3E6",
"' 	c #E3C0C5",
") 	c #DD6670",
"! 	c #E03742",
"~ 	c #EA454D",
"{ 	c #F24F55",
"] 	c #F45358",
"^ 	c #F14F55",
"/ 	c #E03641",
"( 	c #DD6771",
"_ 	c #E3C4C9",
": 	c #E0A7AE",
"< 	c #DE444E",
"[ 	c #EB474E",
"} 	c #F35157",
"| 	c #F25056",
"1 	c #EB464E",
"2 	c #DE4450",
"3 	c #E2B6BC",
"4 	c #EF4C53",
"5 	c #F35056",
"6 	c #EF4B52",
"7 	c #DB3744",
"8 	c #E6D5D9",
"9 	c #EE4D54",
"0 	c #D84048",
"a 	c #D63F48",
"b 	c #EB4B52",
"c 	c #EB464F",
"d 	c #D9505C",
"e 	c #9B1B29",
"f 	c #C6363F",
"g 	c #F04F55",
"h 	c #C3333D",
"i 	c #9A1A29",
"j 	c #D23C45",
"k 	c #F55257",
"l 	c #DF3641",
"m 	c #E2B1B7",
"n 	c #9E1D2B",
"o 	c #C4353E",
"p 	c #F45257",
"q 	c #9C1B29",
"r 	c #C93641",
"s 	c #F14F56",
"t 	c #EE4A52",
"u 	c #D95D69",
"v 	c #9F1D2B",
"w 	c #BE313B",
"x 	c #C6353F",
"y 	c #CD3943",
"z 	c #D9404C",
"A 	c #C73540",
"B 	c #F25156",
"C 	c #DC3C48",
"D 	c #D8313C",
"E 	c #A3202D",
"F 	c #C83740",
"G 	c #DC3C47",
"H 	c #D94754",
"I 	c #9F1D2A",
"J 	c #C5353F",
"K 	c #F45157",
"L 	c #D83F4B",
"M 	c #C0323C",
"N 	c #F55258",
"O 	c #EE4A51",
"P 	c #D9606B",
"Q 	c #C93640",
"R 	c #CE3A44",
"S 	c #F35258",
"T 	c #E03642",
"U 	c #E1B0B6",
"V 	c #CD3A44",
"W 	c #E74950",
"X 	c #EC474E",
"Y 	c #D9525D",
"Z 	c #E3C3C8",
"` 	c #ED4A51",
" .	c #DC424D",
"..	c #E5CFD4",
"+.	c #E3BBC1",
"@.	c #E5D4D8",
"#.	c #D9515D",
"$.	c #DC3D48",
"%.	c #DC3B47",
". . . . . . . . . . . . . . . . . . . . . . . . ",
"+ + + + + + + + + + + + + + + + + + + + + + + + ",
"@ @ @ @ @ @ @ @ @ @ @ @ @ @ @ @ @ @ @ @ @ @ @ @ ",
"@ @ @ @ @ @ @ @ @ @ @ @ @ @ @ @ @ @ @ @ @ @ @ @ ",
"@ @ @ @ @ @ @ @ @ @ @ @ @ @ @ @ @ @ @ @ @ @ @ @ ",
"@ @ @ @ @ @ @ @ @ @ @ @ @ @ @ @ @ @ @ @ @ @ @ @ ",
"@ @ @ @ @ @ @ @ @ @ @ @ @ @ @ @ @ @ @ @ @ @ @ @ ",
"@ @ @ @ @ @ @ # $ % & * = - ; > , @ @ @ @ @ @ @ ",
"@ @ @ @ @ @ ' ) ! ~ { ] ] ^ ~ / ( _ @ @ @ @ @ @ ",
"@ @ @ @ @ : < [ } } | | | | } } 1 2 3 @ @ @ @ @ ",
"@ @ @ @ ' < 4 | } | | | | | | } 5 6 7 8 @ @ @ @ ",
"@ @ @ # ) [ | 9 0 ^ | | | | | a b } c d @ @ @ @ ",
"@ @ @ $ ! } } 0 e f ^ | 5 g h i j k ] l m @ @ @ ",
"@ @ @ % ~ } | ^ f n o p ^ h q r s | | t u @ @ @ ",
"@ @ @ & { | | | ^ o v w x q y ^ | | | } z @ @ @ ",
"@ @ @ * ] | | | | p w n n A s | | | | B C @ @ @ ",
"@ @ @ D ] | | | 5 ^ x n E F ^ | | | | B G @ @ @ ",
"@ @ @ H ^ | | | g h q A F I J K | | | } L @ @ @ ",
"@ @ @ ; ~ } | | h q y s ^ J v M N | | O P @ @ @ ",
"@ @ @ > / } } a i Q ^ | | K M v R N S T U @ @ @ ",
"@ @ @ , ( 1 5 b j s | | | | N V W p X Y @ @ @ @ ",
"@ @ @ @ Z 2 6 } k | | | | | | N p `  ...@ @ @ @ ",
"@ @ @ @ @ 3 7 c ] | | | | | | S X  .+.@ @ @ @ @ ",
"@ @ @ @ @ @ @.d l t } B B } O T #...@ @ @ @ @ @ ",
"@ @ @ @ @ @ @ @ m u z $.%.L P U @ @ @ @ @ @ @ @ ",
"@ @ @ @ @ @ @ @ @ @ @ @ @ @ @ @ @ @ @ @ @ @ @ @ ",
"@ @ @ @ @ @ @ @ @ @ @ @ @ @ @ @ @ @ @ @ @ @ @ @ ",
"@ @ @ @ @ @ @ @ @ @ @ @ @ @ @ @ @ @ @ @ @ @ @ @ ",
"@ @ @ @ @ @ @ @ @ @ @ @ @ @ @ @ @ @ @ @ @ @ @ @ ",
"@ @ @ @ @ @ @ @ @ @ @ @ @ @ @ @ @ @ @ @ @ @ @ @ ",
"@ @ @ @ @ @ @ @ @ @ @ @ @ @ @ @ @ @ @ @ @ @ @ @ ",
"@ @ @ @ @ @ @ @ @ @ @ @ @ @ @ @ @ @ @ @ @ @ @ @ ",
"@ @ @ @ @ @ @ @ @ @ @ @ @ @ @ @ @ @ @ @ @ @ @ @ ",
"@ @ @ @ @ @ @ @ @ @ @ @ @ @ @ @ @ @ @ @ @ @ @ @ ",
"@ @ @ @ @ @ @ @ @ @ @ @ @ @ @ @ @ @ @ @ @ @ @ @ ",
"@ @ @ @ @ @ @ @ @ @ @ @ @ @ @ @ @ @ @ @ @ @ @ @ "};
