/* XPM */
static char * hide_prelight_xpm[] = {
"24 36 103 2",
"  	c None",
". 	c #E0E0E0",
"+ 	c #EEEFF2",
"@ 	c #E8E9EC",
"# 	c #E7E6E4",
"$ 	c #E5DAC1",
"% 	c #E1BF6E",
"& 	c #DEAC34",
"* 	c #DEA319",
"= 	c #DDA319",
"- 	c #DEAC35",
"; 	c #E0BE6D",
"> 	c #E5DBC2",
", 	c #E7E6E5",
"' 	c #E4D9BF",
") 	c #E1B857",
"! 	c #E6AD1E",
"~ 	c #F1BA2B",
"{ 	c #F9C435",
"] 	c #FCC839",
"^ 	c #FCC838",
"/ 	c #E1B856",
"( 	c #E4D9C1",
"_ 	c #E1CFA4",
": 	c #E3AF2F",
"< 	c #F2BC2D",
"[ 	c #FBC637",
"} 	c #FAC536",
"| 	c #E2AE2F",
"1 	c #E3D4B2",
"2 	c #F7C132",
"3 	c #F6C132",
"4 	c #E0A821",
"5 	c #E6E0D3",
"6 	c #E1B858",
"7 	c #F3BD2E",
"8 	c #DDAD3C",
"9 	c #E6AD1D",
"0 	c #E3D2AA",
"a 	c #E1BF6F",
"b 	c #F7C031",
"c 	c #DCB14C",
"d 	c #DEAC36",
"e 	c #F9C334",
"f 	c #FECA37",
"g 	c #FFCA38",
"h 	c #FEC937",
"i 	c #DFA92B",
"j 	c #DEA41C",
"k 	c #FDC839",
"l 	c #FAC436",
"m 	c #B87D1F",
"n 	c #AB6F1B",
"o 	c #AA6E1B",
"p 	c #C28723",
"q 	c #F5BF34",
"r 	c #FAC637",
"s 	c #E2AA24",
"t 	c #DDA41B",
"u 	c #F7C235",
"v 	c #B57A1E",
"w 	c #AB6E1B",
"x 	c #AA6D1A",
"y 	c #BE8422",
"z 	c #F3BE34",
"A 	c #E2AB23",
"B 	c #F8C435",
"C 	c #FBC636",
"D 	c #FDC937",
"E 	c #FDC837",
"F 	c #DEA929",
"G 	c #E1C070",
"H 	c #F6C031",
"I 	c #DCB24F",
"J 	c #E5DBC5",
"K 	c #FBC738",
"L 	c #E7AD1F",
"M 	c #E2D1A9",
"N 	c #E1B959",
"O 	c #F2BB2C",
"P 	c #F3BC2E",
"Q 	c #DCAE3F",
"R 	c #E4DAC3",
"S 	c #E2AE30",
"T 	c #F6C032",
"U 	c #F5BF30",
"V 	c #E0AC2C",
"W 	c #E6DFCE",
"X 	c #E3D5B4",
"Y 	c #F3BC2D",
"Z 	c #FCC738",
"` 	c #E4D7B8",
" .	c #E6E1D6",
"..	c #DDAF41",
"+.	c #E6AC1D",
"@.	c #F5C031",
"#.	c #DDAE40",
"$.	c #E3D3AD",
"%.	c #DEAA2B",
"&.	c #E2AB27",
"*.	c #E1AB26",
"=.	c #DEA82A",
"-.	c #DCB350",
". . . . . . . . . . . . . . . . . . . . . . . . ",
"+ + + + + + + + + + + + + + + + + + + + + + + + ",
"@ @ @ @ @ @ @ @ @ @ @ @ @ @ @ @ @ @ @ @ @ @ @ @ ",
"@ @ @ @ @ @ @ @ @ @ @ @ @ @ @ @ @ @ @ @ @ @ @ @ ",
"@ @ @ @ @ @ @ @ @ @ @ @ @ @ @ @ @ @ @ @ @ @ @ @ ",
"@ @ @ @ @ @ @ @ @ @ @ @ @ @ @ @ @ @ @ @ @ @ @ @ ",
"@ @ @ @ @ @ @ @ @ @ @ @ @ @ @ @ @ @ @ @ @ @ @ @ ",
"@ @ @ @ @ @ @ # $ % & * = - ; > , @ @ @ @ @ @ @ ",
"@ @ @ @ @ @ ' ) ! ~ { ] ^ { ~ ! / ( @ @ @ @ @ @ ",
"@ @ @ @ @ _ : < [ [ } } } } [ [ < | 1 @ @ @ @ @ ",
"@ @ @ @ ' : 2 } } } } } } } } } } 3 4 5 @ @ @ @ ",
"@ @ @ # 6 < } } } } } } } } } } } [ 7 8 @ @ @ @ ",
"@ @ @ $ ! [ } } } } } } } } } } } } ] 9 0 @ @ @ ",
"@ @ @ a ~ [ } } } } } } } } } } } } } b c @ @ @ ",
"@ @ @ d e } f g g g g g g g g g g h } [ i @ @ @ ",
"@ @ @ j k l m n n n n n n n n n o p q r s @ @ @ ",
"@ @ @ t ] u v w w w w w w w w w x y z r A @ @ @ ",
"@ @ @ d B C D E E E E E E E E E E E C [ F @ @ @ ",
"@ @ @ G ~ [ } } } } } } } } } } } } } H I @ @ @ ",
"@ @ @ J ! [ } } } } } } } } } } } } K L M @ @ @ ",
"@ @ @ , N O } } } } } } } } } } } [ P Q @ @ @ @ ",
"@ @ @ @ R S T [ } } } } } } } } [ U V W @ @ @ @ ",
"@ @ @ @ @ X 4 Y ] } } } } } } Z Y V ` @ @ @ @ @ ",
"@ @ @ @ @ @  ...+.H [ r r [ @.! #.W @ @ @ @ @ @ ",
"@ @ @ @ @ @ @ @ $.I %.&.*.=.-.0 @ @ @ @ @ @ @ @ ",
"@ @ @ @ @ @ @ @ @ @ @ @ @ @ @ @ @ @ @ @ @ @ @ @ ",
"@ @ @ @ @ @ @ @ @ @ @ @ @ @ @ @ @ @ @ @ @ @ @ @ ",
"@ @ @ @ @ @ @ @ @ @ @ @ @ @ @ @ @ @ @ @ @ @ @ @ ",
"@ @ @ @ @ @ @ @ @ @ @ @ @ @ @ @ @ @ @ @ @ @ @ @ ",
"@ @ @ @ @ @ @ @ @ @ @ @ @ @ @ @ @ @ @ @ @ @ @ @ ",
"@ @ @ @ @ @ @ @ @ @ @ @ @ @ @ @ @ @ @ @ @ @ @ @ ",
"@ @ @ @ @ @ @ @ @ @ @ @ @ @ @ @ @ @ @ @ @ @ @ @ ",
"@ @ @ @ @ @ @ @ @ @ @ @ @ @ @ @ @ @ @ @ @ @ @ @ ",
"@ @ @ @ @ @ @ @ @ @ @ @ @ @ @ @ @ @ @ @ @ @ @ @ ",
"@ @ @ @ @ @ @ @ @ @ @ @ @ @ @ @ @ @ @ @ @ @ @ @ ",
"@ @ @ @ @ @ @ @ @ @ @ @ @ @ @ @ @ @ @ @ @ @ @ @ "};
