/* XPM */
static char * hide_inactive_xpm[] = {
"24 36 58 1",
" 	c None",
".	c #E0E0E0",
"+	c #EEEFF2",
"@	c #E8E9EC",
"#	c #E6E7EA",
"$	c #DFDFE2",
"%	c #CCCCCE",
"&	c #BFC0C0",
"*	c #B9B9B9",
"=	c #C0C0C0",
"-	c #CCCDCE",
";	c #DFE0E3",
">	c #DDDEE0",
",	c #C7C7C8",
"'	c #BBBBBB",
")	c #C1C1C1",
"!	c #C6C6C6",
"~	c #C8C8C8",
"{	c #BABABA",
"]	c #C7C8C9",
"^	c #DEDFE2",
"/	c #D6D7D9",
"(	c #BEBEBE",
"_	c #C3C3C3",
":	c #C7C7C7",
"<	c #C2C2C2",
"[	c #BEBEBF",
"}	c #DBDCDE",
"|	c #BDBEBE",
"1	c #C5C5C5",
"2	c #B9B9BA",
"3	c #E3E4E7",
"4	c #E6E7E9",
"5	c #C6C7C8",
"6	c #C0C1C1",
"7	c #DEDFE1",
"8	c #BCBCBC",
"9	c #D9DADC",
"0	c #CACACC",
"a	c #C4C4C4",
"b	c #C2C3C3",
"c	c #BBBBBC",
"d	c #B7B7B7",
"e	c #BDBDBD",
"f	c #CACACB",
"g	c #C3C3C4",
"h	c #D8D9DB",
"i	c #C5C6C7",
"j	c #DEDEE1",
"k	c #E1E2E4",
"l	c #DADBDD",
"m	c #BCBCBD",
"n	c #DCDDDF",
"o	c #E2E3E6",
"p	c #D7D8DA",
"q	c #BBBCBC",
"r	c #BCBDBD",
"s	c #C4C4C5",
"........................",
"++++++++++++++++++++++++",
"@@@@@@@@@@@@@@@@@@@@@@@@",
"@@@@@@@@@@@@@@@@@@@@@@@@",
"@@@@@@@@@@@@@@@@@@@@@@@@",
"@@@@@@@@@@@@@@@@@@@@@@@@",
"@@@@@@@@@@@@@@@@@@@@@@@@",
"@@@@@@@#$%&**=-;#@@@@@@@",
"@@@@@@>,')!~~!){]^@@@@@@",
"@@@@@/(_~:::::::<[}@@@@@",
"@@@@>|1::::::::::123@@@@",
"@@@45_::::::::::::_6@@@@",
"@@@78~::::::::::::~'9@@@",
"@@@0<::::::::::::::ab@@@",
"@@@|!:::::::::::::::c@@@",
"@@@d~:::::::::::::::8@@@",
"@@@d~:::::::::::::::'@@@",
"@@@e!::::::::::::::~'@@@",
"@@@f)::::::::::::::ag@@@",
"@@@7'~::::::::::::~'h@@@",
"@@@#i_::::::::::::_&@@@@",
"@@@@j|1::::::::::aek@@@@",
"@@@@@l*_~::::::~_mn@@@@@",
"@@@@@@o('1::::a8[k@@@@@@",
"@@@@@@@@pg|qqrsp@@@@@@@@",
"@@@@@@@@@@@@@@@@@@@@@@@@",
"@@@@@@@@@@@@@@@@@@@@@@@@",
"@@@@@@@@@@@@@@@@@@@@@@@@",
"@@@@@@@@@@@@@@@@@@@@@@@@",
"@@@@@@@@@@@@@@@@@@@@@@@@",
"@@@@@@@@@@@@@@@@@@@@@@@@",
"@@@@@@@@@@@@@@@@@@@@@@@@",
"@@@@@@@@@@@@@@@@@@@@@@@@",
"@@@@@@@@@@@@@@@@@@@@@@@@",
"@@@@@@@@@@@@@@@@@@@@@@@@",
"@@@@@@@@@@@@@@@@@@@@@@@@"};
