/* XPM */
static char * hide_active_xpm[] = {
"24 36 92 2",
"  	c None",
". 	c #E0E0E0",
"+ 	c #EEEFF2",
"@ 	c #E8E9EC",
"# 	c #E7E6E5",
"$ 	c #E5DCC6",
"% 	c #E1C276",
"& 	c #DFAF3D",
"* 	c #DDA622",
"= 	c #DFAF3E",
"- 	c #E5DCC8",
"; 	c #E4DAC2",
"> 	c #E1BA5E",
", 	c #E6AD1E",
"' 	c #F0B92A",
") 	c #F8C334",
"! 	c #FBC738",
"~ 	c #FCC738",
"{ 	c #F8C233",
"] 	c #E5AC1D",
"^ 	c #E2BB5C",
"/ 	c #E4DBC5",
"( 	c #E2D0A7",
"_ 	c #E3AF31",
": 	c #F2BB2D",
"< 	c #FBC637",
"[ 	c #FAC536",
"} 	c #F2BB2C",
"| 	c #E2AF31",
"1 	c #E3D6B6",
"2 	c #E4D9C1",
"3 	c #E2B031",
"4 	c #F7C132",
"5 	c #F6C032",
"6 	c #DFA822",
"7 	c #E6E1D7",
"8 	c #E7E6E4",
"9 	c #E1BA5B",
"0 	c #F2BC2D",
"a 	c #DDAF41",
"b 	c #E5DBC3",
"c 	c #E6AC1E",
"d 	c #FCC839",
"e 	c #E6AC1D",
"f 	c #E3D2AD",
"g 	c #E1C070",
"h 	c #F1B92B",
"i 	c #F6C031",
"j 	c #DCB14D",
"k 	c #DEAD37",
"l 	c #F9C334",
"m 	c #DEAA2C",
"n 	c #DEA41B",
"o 	c #FAC637",
"p 	c #E2AA25",
"q 	c #DDA41C",
"r 	c #E2AB24",
"s 	c #DEAC36",
"t 	c #DEA82A",
"u 	c #E1BF6F",
"v 	c #F1BA2B",
"w 	c #DCB250",
"x 	c #E5DBC4",
"y 	c #E5AC1E",
"z 	c #E6AD1F",
"A 	c #E3D1A8",
"B 	c #E1B959",
"C 	c #F3BC2D",
"D 	c #DDAE40",
"E 	c #E4DAC3",
"F 	c #F5BF30",
"G 	c #E0AC2C",
"H 	c #E6DFCE",
"I 	c #E4D6B6",
"J 	c #DFA720",
"K 	c #F3BD2E",
"L 	c #F4BD2E",
"M 	c #E0AB2B",
"N 	c #E4D7B9",
"O 	c #E6E1D6",
"P 	c #DCAD3C",
"Q 	c #E7AE1F",
"R 	c #DCAD3E",
"S 	c #E6DFCF",
"T 	c #E3D1AA",
"U 	c #DDB352",
"V 	c #DFAC33",
"W 	c #E2AC26",
"X 	c #E2AC27",
"Y 	c #DEAB31",
"Z 	c #DDB353",
"` 	c #E2D1A8",
". . . . . . . . . . . . . . . . . . . . . . . . ",
"+ + + + + + + + + + + + + + + + + + + + + + + + ",
"@ @ @ @ @ @ @ @ @ @ @ @ @ @ @ @ @ @ @ @ @ @ @ @ ",
"@ @ @ @ @ @ @ @ @ @ @ @ @ @ @ @ @ @ @ @ @ @ @ @ ",
"@ @ @ @ @ @ @ @ @ @ @ @ @ @ @ @ @ @ @ @ @ @ @ @ ",
"@ @ @ @ @ @ @ @ @ @ @ @ @ @ @ @ @ @ @ @ @ @ @ @ ",
"@ @ @ @ @ @ @ @ @ @ @ @ @ @ @ @ @ @ @ @ @ @ @ @ ",
"@ @ @ @ @ @ @ # $ % & * * = % - # @ @ @ @ @ @ @ ",
"@ @ @ @ @ @ ; > , ' ) ! ~ { ' ] ^ / @ @ @ @ @ @ ",
"@ @ @ @ @ ( _ : < < [ [ [ [ < < } | 1 @ @ @ @ @ ",
"@ @ @ @ 2 3 4 [ [ [ [ [ [ [ [ [ [ 5 6 7 @ @ @ @ ",
"@ @ @ 8 9 0 [ [ [ [ [ [ [ [ [ [ [ < : a @ @ @ @ ",
"@ @ @ b c < [ [ [ [ [ [ [ [ [ [ [ [ d e f @ @ @ ",
"@ @ @ g h < [ [ [ [ [ [ [ [ [ [ [ [ [ i j @ @ @ ",
"@ @ @ k l [ [ [ [ [ [ [ [ [ [ [ [ [ [ < m @ @ @ ",
"@ @ @ n d [ [ [ [ [ [ [ [ [ [ [ [ [ [ o p @ @ @ ",
"@ @ @ q ~ [ [ [ [ [ [ [ [ [ [ [ [ [ [ o r @ @ @ ",
"@ @ @ s l [ [ [ [ [ [ [ [ [ [ [ [ [ [ < t @ @ @ ",
"@ @ @ u v < [ [ [ [ [ [ [ [ [ [ [ [ [ i w @ @ @ ",
"@ @ @ x y < [ [ [ [ [ [ [ [ [ [ [ [ ! z A @ @ @ ",
"@ @ @ # B } [ [ [ [ [ [ [ [ [ [ [ < C D @ @ @ @ ",
"@ @ @ @ E | 4 < [ [ [ [ [ [ [ [ < F G H @ @ @ @ ",
"@ @ @ @ @ I J K d [ [ [ [ [ [ ! L M N @ @ @ @ @ ",
"@ @ @ @ @ @ O P , i [ [ [ [ i Q R S @ @ @ @ @ @ ",
"@ @ @ @ @ @ @ @ T U V W X Y Z ` @ @ @ @ @ @ @ @ ",
"@ @ @ @ @ @ @ @ @ @ @ @ @ @ @ @ @ @ @ @ @ @ @ @ ",
"@ @ @ @ @ @ @ @ @ @ @ @ @ @ @ @ @ @ @ @ @ @ @ @ ",
"@ @ @ @ @ @ @ @ @ @ @ @ @ @ @ @ @ @ @ @ @ @ @ @ ",
"@ @ @ @ @ @ @ @ @ @ @ @ @ @ @ @ @ @ @ @ @ @ @ @ ",
"@ @ @ @ @ @ @ @ @ @ @ @ @ @ @ @ @ @ @ @ @ @ @ @ ",
"@ @ @ @ @ @ @ @ @ @ @ @ @ @ @ @ @ @ @ @ @ @ @ @ ",
"@ @ @ @ @ @ @ @ @ @ @ @ @ @ @ @ @ @ @ @ @ @ @ @ ",
"@ @ @ @ @ @ @ @ @ @ @ @ @ @ @ @ @ @ @ @ @ @ @ @ ",
"@ @ @ @ @ @ @ @ @ @ @ @ @ @ @ @ @ @ @ @ @ @ @ @ ",
"@ @ @ @ @ @ @ @ @ @ @ @ @ @ @ @ @ @ @ @ @ @ @ @ ",
"@ @ @ @ @ @ @ @ @ @ @ @ @ @ @ @ @ @ @ @ @ @ @ @ "};
