/* XPM */
static char * hide_pressed_xpm[] = {
"24 36 69 1",
" 	c None",
".	c #E0E0E0",
"+	c #EEEFF2",
"@	c #E8E9EC",
"#	c #E8E7E6",
"$	c #EBE2CD",
"%	c #F1D58A",
"&	c #F6CC5A",
"*	c #F8C743",
"=	c #F6CC5B",
"-	c #EAE3CF",
";	c #E8E8E7",
">	c #EBE2CA",
",	c #F3D174",
"'	c #FAC536",
")	c #F3D173",
"!	c #EBE2CC",
"~	c #EDDEB5",
"{	c #F7C94A",
"]	c #ECE0C0",
"^	c #F8C849",
"/	c #F9C63F",
"(	c #E9E5DA",
"_	c #E8E7E5",
":	c #F4D071",
"<	c #F5CD5E",
"[	c #EDDEB9",
"}	c #F2D484",
"|	c #F4CF6A",
"1	c #F6CB54",
"2	c #FEC937",
"3	c #FECA38",
"4	c #FECA37",
"5	c #FDC837",
"6	c #F9C63C",
"7	c #BB8121",
"8	c #AF721C",
"9	c #AE711B",
"0	c #C48B24",
"a	c #F5C034",
"b	c #F8C740",
"c	c #FBC636",
"d	c #F7C135",
"e	c #B67A1F",
"f	c #AC701B",
"g	c #AB6F1B",
"h	c #BE8422",
"i	c #F3BD34",
"j	c #F7CA53",
"k	c #FAC636",
"l	c #FCC737",
"m	c #FBC736",
"n	c #F2D483",
"o	c #F4CF6B",
"p	c #EBE2CB",
"q	c #EDDDB4",
"r	c #F4D06F",
"s	c #F6CC5D",
"t	c #F8C848",
"u	c #EAE4D3",
"v	c #ECE0BF",
"w	c #F9C63E",
"x	c #F8C847",
"y	c #ECE0C2",
"z	c #F9C536",
"A	c #F4D06E",
"B	c #F7CA4F",
"C	c #F8C741",
"D	c #F7C94E",
"........................",
"++++++++++++++++++++++++",
"@@@@@@@@@@@@@@@@@@@@@@@@",
"@@@@@@@@@@@@@@@@@@@@@@@@",
"@@@@@@@@@@@@@@@@@@@@@@@@",
"@@@@@@@@@@@@@@@@@@@@@@@@",
"@@@@@@@@@@@@@@@@@@@@@@@@",
"@@@@@@@#$%&**=%-;@@@@@@@",
"@@@@@@>,'''''''')!@@@@@@",
"@@@@@~{''''''''''{]@@@@@",
"@@@@>^''''''''''''/(@@@@",
"@@@_:''''''''''''''<@@@@",
"@@@>''''''''''''''''[@@@",
"@@@}''''''''''''''''|@@@",
"@@@1''234444444435''{@@@",
"@@@6''788888888890a'b@@@",
"@@@6cdefffffffffghi'/@@@",
"@@@j'kl''''''''''mc'^@@@",
"@@@n''''''''''''''''o@@@",
"@@@p''''''''''''''''q@@@",
"@@@;r''''''''''''''s@@@@",
"@@@@p^''''''''''''tu@@@@",
"@@@@@vw''''''''''xy@@@@@",
"@@@@@@(&'''''''z=u@@@@@@",
"@@@@@@@@~ABCCDrq@@@@@@@@",
"@@@@@@@@@@@@@@@@@@@@@@@@",
"@@@@@@@@@@@@@@@@@@@@@@@@",
"@@@@@@@@@@@@@@@@@@@@@@@@",
"@@@@@@@@@@@@@@@@@@@@@@@@",
"@@@@@@@@@@@@@@@@@@@@@@@@",
"@@@@@@@@@@@@@@@@@@@@@@@@",
"@@@@@@@@@@@@@@@@@@@@@@@@",
"@@@@@@@@@@@@@@@@@@@@@@@@",
"@@@@@@@@@@@@@@@@@@@@@@@@",
"@@@@@@@@@@@@@@@@@@@@@@@@",
"@@@@@@@@@@@@@@@@@@@@@@@@"};
