/* XPM */
static char * maximize_prelight_xpm[] = {
"24 36 145 2",
"  	c None",
". 	c #E0E0E0",
"+ 	c #EEEFF2",
"@ 	c #E8E9EC",
"# 	c #E0E7E4",
"$ 	c #BFE1C4",
"% 	c #6ED376",
"& 	c #36C940",
"* 	c #1DC628",
"= 	c #1CC628",
"- 	c #6CD374",
"; 	c #BEE1C3",
"> 	c #E2E7E6",
", 	c #BEE0C3",
"' 	c #5AD164",
") 	c #21D02E",
"! 	c #2EDE3D",
"~ 	c #38E848",
"{ 	c #3CED4C",
"] 	c #3BED4C",
"^ 	c #38E948",
"/ 	c #2FDF3D",
"( 	c #21D02F",
"_ 	c #55D15E",
": 	c #BDDFC2",
"< 	c #A4DAAA",
"[ 	c #31CE3D",
"} 	c #30E03F",
"| 	c #3AEB4A",
"1 	c #39EA49",
"2 	c #ADDDB3",
"3 	c #32CF3D",
"4 	c #35E644",
"5 	c #39EB4A",
"6 	c #3AED4B",
"7 	c #3AEE4B",
"8 	c #36E645",
"9 	c #22CA2E",
"0 	c #CEE4D2",
"a 	c #5CD165",
"b 	c #30E03E",
"c 	c #32D83F",
"d 	c #21AC26",
"e 	c #1FA623",
"f 	c #22AE27",
"g 	c #38E647",
"h 	c #32E240",
"i 	c #3BC944",
"j 	c #C1E1C7",
"k 	c #24B42A",
"l 	c #0B7407",
"m 	c #096F04",
"n 	c #097005",
"o 	c #1FA723",
"p 	c #3BF04C",
"q 	c #22D12E",
"r 	c #A4DBAA",
"s 	c #73D47A",
"t 	c #2DDD3C",
"u 	c #32D93F",
"v 	c #3AEC4A",
"w 	c #3BEF4C",
"x 	c #29C031",
"y 	c #0C7709",
"z 	c #0A7206",
"A 	c #1B9E1E",
"B 	c #3BF04D",
"C 	c #4BCA53",
"D 	c #3BCA46",
"E 	c #37E847",
"F 	c #24B32B",
"G 	c #22AD27",
"H 	c #3BEE4B",
"I 	c #2BC534",
"J 	c #0D7709",
"K 	c #0B7307",
"L 	c #1C9F1F",
"M 	c #2EC939",
"N 	c #21C62D",
"O 	c #22AF28",
"P 	c #27BA2F",
"Q 	c #28BD30",
"R 	c #0D790A",
"S 	c #24CD2F",
"T 	c #22C62D",
"U 	c #3BEC4C",
"V 	c #096E04",
"W 	c #29BF31",
"X 	c #39EB49",
"Y 	c #26B72C",
"Z 	c #0D7809",
"` 	c #22CB2F",
" .	c #3CCA47",
"..	c #0A7306",
"+.	c #0B7408",
"@.	c #26B72D",
"#.	c #28BE30",
"$.	c #1EA421",
"%.	c #2BC935",
"&.	c #73D47B",
"*.	c #23B12A",
"=.	c #35DF43",
"-.	c #34E644",
";.	c #4CCA55",
">.	c #C4E2CA",
",.	c #20CF2D",
"'.	c #25B72C",
").	c #26B82E",
"!.	c #3BEC4B",
"~.	c #22D22F",
"{.	c #A3DBA9",
"].	c #5DD266",
"^.	c #2FDF3E",
"/.	c #38E748",
"(.	c #20A824",
"_.	c #1B9C1D",
":.	c #1C9D1E",
"<.	c #1B9D1D",
"[.	c #1C9F1E",
"}.	c #33DC41",
"|.	c #31E240",
"1.	c #3DC947",
"2.	c #C2E1C7",
"3.	c #34CE3F",
"4.	c #34E544",
"5.	c #33E443",
"6.	c #2DCB38",
"7.	c #C9E3CE",
"8.	c #B4DEBA",
"9.	c #26C931",
"0.	c #31E140",
"a.	c #2ECC39",
"b.	c #B3DFB8",
"c.	c #D3E5D8",
"d.	c #45CB4E",
"e.	c #1FCF2C",
"f.	c #34E543",
"g.	c #22D12F",
"h.	c #3FC948",
"i.	c #51CA5A",
"j.	c #29CC35",
"k.	c #28CC34",
"l.	c #2CC836",
"m.	c #51CA59",
"n.	c #A6DCAC",
". . . . . . . . . . . . . . . . . . . . . . . . ",
"+ + + + + + + + + + + + + + + + + + + + + + + + ",
"@ @ @ @ @ @ @ @ @ @ @ @ @ @ @ @ @ @ @ @ @ @ @ @ ",
"@ @ @ @ @ @ @ @ @ @ @ @ @ @ @ @ @ @ @ @ @ @ @ @ ",
"@ @ @ @ @ @ @ @ @ @ @ @ @ @ @ @ @ @ @ @ @ @ @ @ ",
"@ @ @ @ @ @ @ @ @ @ @ @ @ @ @ @ @ @ @ @ @ @ @ @ ",
"@ @ @ @ @ @ @ @ @ @ @ @ @ @ @ @ @ @ @ @ @ @ @ @ ",
"@ @ @ @ @ @ @ # $ % & * = & - ; > @ @ @ @ @ @ @ ",
"@ @ @ @ @ @ , ' ) ! ~ { ] ^ / ( _ : @ @ @ @ @ @ ",
"@ @ @ @ @ < [ } | | 1 1 1 1 | | } [ 2 @ @ @ @ @ ",
"@ @ @ @ , 3 4 1 1 5 6 7 7 7 7 6 1 8 9 0 @ @ @ @ ",
"@ @ @ # a b 1 1 5 c d e e e e f g | h i @ @ @ @ ",
"@ @ @ j ) | 1 5 1 7 k l m n n m o p { q r @ @ @ ",
"@ @ @ s t | 5 u v 1 w x y z l l A B 1 4 C @ @ @ ",
"@ @ @ D E 1 6 F G H 1 1 I J K l L p 1 | M @ @ @ ",
"@ @ @ N { 1 6 O z P 1 1 v Q R l L p 1 | S @ @ @ ",
"@ @ @ T U 1 6 O V l W X 1 p Y Z A B 1 | ` @ @ @ ",
"@ @ @  .E 1 6 O m ..+.@.w 1 w #.$.w 1 | %.@ @ @ ",
"@ @ @ &.t | 6 O m l K y *.H 1 X =.X 1 -.;.@ @ @ ",
"@ @ @ >.,.| 6 '.m l l l y ).1 1 1 1 !.~.{.@ @ @ ",
"@ @ @ > ].^.1 /.(._.:.:.<.[.}.1 1 | |.1.@ @ @ @ ",
"@ @ @ @ 2.3.4.| w B B B B p 5 1 | 5.6.7.@ @ @ @ ",
"@ @ @ @ @ 8.9.} { 1 1 1 1 1 1 !.0.a.b.@ @ @ @ @ ",
"@ @ @ @ @ @ c.d.e.5.| | | | f.g.h.7.@ @ @ @ @ @ ",
"@ @ @ @ @ @ @ @ 2 i.M j.k.l.m.n.@ @ @ @ @ @ @ @ ",
"@ @ @ @ @ @ @ @ @ @ @ @ @ @ @ @ @ @ @ @ @ @ @ @ ",
"@ @ @ @ @ @ @ @ @ @ @ @ @ @ @ @ @ @ @ @ @ @ @ @ ",
"@ @ @ @ @ @ @ @ @ @ @ @ @ @ @ @ @ @ @ @ @ @ @ @ ",
"@ @ @ @ @ @ @ @ @ @ @ @ @ @ @ @ @ @ @ @ @ @ @ @ ",
"@ @ @ @ @ @ @ @ @ @ @ @ @ @ @ @ @ @ @ @ @ @ @ @ ",
"@ @ @ @ @ @ @ @ @ @ @ @ @ @ @ @ @ @ @ @ @ @ @ @ ",
"@ @ @ @ @ @ @ @ @ @ @ @ @ @ @ @ @ @ @ @ @ @ @ @ ",
"@ @ @ @ @ @ @ @ @ @ @ @ @ @ @ @ @ @ @ @ @ @ @ @ ",
"@ @ @ @ @ @ @ @ @ @ @ @ @ @ @ @ @ @ @ @ @ @ @ @ ",
"@ @ @ @ @ @ @ @ @ @ @ @ @ @ @ @ @ @ @ @ @ @ @ @ ",
"@ @ @ @ @ @ @ @ @ @ @ @ @ @ @ @ @ @ @ @ @ @ @ @ "};
