/* XPM */
static char * maximize_pressed_xpm[] = {
"24 36 92 2",
"  	c None",
". 	c #E0E0E0",
"+ 	c #EEEFF2",
"@ 	c #E8E9EC",
"# 	c #E1E7E5",
"$ 	c #C4E2CA",
"% 	c #76D37E",
"& 	c #3EC948",
"* 	c #22C32D",
"= 	c #22C32C",
"- 	c #3CC846",
"; 	c #73D37B",
"> 	c #C5E2CA",
", 	c #E2E7E6",
"' 	c #C2E1C7",
") 	c #5ECF66",
"! 	c #13C11E",
"~ 	c #59CE61",
"{ 	c #AADDB0",
"] 	c #2CC537",
"^ 	c #2AC534",
"/ 	c #B2DEB8",
"( 	c #C1E1C6",
"_ 	c #2CC536",
": 	c #13C21E",
"< 	c #13C31F",
"[ 	c #13C31E",
"} 	c #1DC227",
"| 	c #D1E4D6",
"1 	c #5BCE64",
"2 	c #12B61B",
"3 	c #109C13",
"4 	c #109812",
"5 	c #109D14",
"6 	c #13BE1D",
"7 	c #C3E2C8",
"8 	c #0B7307",
"9 	c #0B7006",
"0 	c #0B7106",
"a 	c #0F9611",
"b 	c #13C51F",
"c 	c #A8DDAE",
"d 	c #73D37A",
"e 	c #11A516",
"f 	c #0B7507",
"g 	c #0B7407",
"h 	c #0E9010",
"i 	c #4DCB56",
"j 	c #3AC843",
"k 	c #109E14",
"l 	c #0F9A12",
"m 	c #13C41F",
"n 	c #11A817",
"o 	c #0B7607",
"p 	c #29C533",
"q 	c #1FC32A",
"r 	c #109B13",
"s 	c #10A315",
"t 	c #0B7708",
"u 	c #1BC226",
"v 	c #1EC329",
"w 	c #14C41F",
"x 	c #10A014",
"y 	c #19C224",
"z 	c #14C51F",
"A 	c #0F9210",
"B 	c #27C432",
"C 	c #72D27A",
"D 	c #0B7608",
"E 	c #12BA1C",
"F 	c #109F14",
"G 	c #10A215",
"H 	c #A3DCA9",
"I 	c #13BF1D",
"J 	c #0E8E0F",
"K 	c #0E8F0F",
"L 	c #0E900F",
"M 	c #12B81C",
"N 	c #26C430",
"O 	c #C9E3CE",
"P 	c #B5DFBB",
"Q 	c #B5DFBA",
"R 	c #D3E5D8",
"S 	c #3FC948",
"T 	c #3DC947",
"U 	c #ABDDB1",
"V 	c #55CD5E",
"W 	c #31C63B",
"X 	c #20C32A",
"Y 	c #2FC639",
"Z 	c #54CD5D",
"` 	c #A4DCAA",
". . . . . . . . . . . . . . . . . . . . . . . . ",
"+ + + + + + + + + + + + + + + + + + + + + + + + ",
"@ @ @ @ @ @ @ @ @ @ @ @ @ @ @ @ @ @ @ @ @ @ @ @ ",
"@ @ @ @ @ @ @ @ @ @ @ @ @ @ @ @ @ @ @ @ @ @ @ @ ",
"@ @ @ @ @ @ @ @ @ @ @ @ @ @ @ @ @ @ @ @ @ @ @ @ ",
"@ @ @ @ @ @ @ @ @ @ @ @ @ @ @ @ @ @ @ @ @ @ @ @ ",
"@ @ @ @ @ @ @ @ @ @ @ @ @ @ @ @ @ @ @ @ @ @ @ @ ",
"@ @ @ @ @ @ @ # $ % & * = - ; > , @ @ @ @ @ @ @ ",
"@ @ @ @ @ @ ' ) ! ! ! ! ! ! ! ! ~ ' @ @ @ @ @ @ ",
"@ @ @ @ @ { ] ! ! ! ! ! ! ! ! ! ! ^ / @ @ @ @ @ ",
"@ @ @ @ ( _ ! ! ! : < < < < < [ ! ! } | @ @ @ @ ",
"@ @ @ # 1 ! ! ! : 2 3 4 4 4 4 5 6 ! ! & @ @ @ @ ",
"@ @ @ 7 ! ! ! : ! < 3 8 9 0 0 0 a b ! ! c @ @ @ ",
"@ @ @ d ! ! : 2 < ! < e f 8 g g h b ! ! i @ @ @ ",
"@ @ @ j ! ! < k l m ! ! n o g g h b ! ! p @ @ @ ",
"@ @ @ q ! ! < r 8 s ! ! : s t g h b ! ! u @ @ @ ",
"@ @ @ v ! ! < r 9 f e : ! w x t h b ! ! y @ @ @ ",
"@ @ @ j ! ! < r 0 8 f x z ! m e A b ! ! B @ @ @ ",
"@ @ @ C ! ! < r 0 g g D 3 w ! ! E : ! ! i @ @ @ ",
"@ @ @ 7 ! ! < F 0 g g g D G ! ! ! ! ! ! H @ @ @ ",
"@ @ @ , ~ ! ! I a J K K J L M ! ! ! ! & @ @ @ @ ",
"@ @ @ @ 7 _ ! ! m b b b b b : ! ! ! N O @ @ @ @ ",
"@ @ @ @ @ P v ! ! ! ! ! ! ! ! ! ! N Q @ @ @ @ @ ",
"@ @ @ @ @ @ R S ! ! ! ! ! ! ! ! T O @ @ @ @ @ @ ",
"@ @ @ @ @ @ @ @ U V W X q Y Z ` @ @ @ @ @ @ @ @ ",
"@ @ @ @ @ @ @ @ @ @ @ @ @ @ @ @ @ @ @ @ @ @ @ @ ",
"@ @ @ @ @ @ @ @ @ @ @ @ @ @ @ @ @ @ @ @ @ @ @ @ ",
"@ @ @ @ @ @ @ @ @ @ @ @ @ @ @ @ @ @ @ @ @ @ @ @ ",
"@ @ @ @ @ @ @ @ @ @ @ @ @ @ @ @ @ @ @ @ @ @ @ @ ",
"@ @ @ @ @ @ @ @ @ @ @ @ @ @ @ @ @ @ @ @ @ @ @ @ ",
"@ @ @ @ @ @ @ @ @ @ @ @ @ @ @ @ @ @ @ @ @ @ @ @ ",
"@ @ @ @ @ @ @ @ @ @ @ @ @ @ @ @ @ @ @ @ @ @ @ @ ",
"@ @ @ @ @ @ @ @ @ @ @ @ @ @ @ @ @ @ @ @ @ @ @ @ ",
"@ @ @ @ @ @ @ @ @ @ @ @ @ @ @ @ @ @ @ @ @ @ @ @ ",
"@ @ @ @ @ @ @ @ @ @ @ @ @ @ @ @ @ @ @ @ @ @ @ @ ",
"@ @ @ @ @ @ @ @ @ @ @ @ @ @ @ @ @ @ @ @ @ @ @ @ "};
