/* XPM */
static char * maximize_active_xpm[] = {
"24 36 89 1",
" 	c None",
".	c #E0E0E0",
"+	c #EEEFF2",
"@	c #E8E9EC",
"#	c #E1E7E5",
"$	c #C5E2CA",
"%	c #78D57F",
"&	c #40CB4A",
"*	c #24C630",
"=	c #24C730",
"-	c #3FCB49",
";	c #75D47D",
">	c #C4E2CA",
",	c #E2E7E6",
"'	c #C1E1C6",
")	c #5FD269",
"!	c #21D02E",
"~	c #2DDD3C",
"{	c #36E746",
"]	c #3BEC4B",
"^	c #37E746",
"/	c #2EDD3C",
"(	c #20CF2D",
"_	c #5CD265",
":	c #C0E0C5",
"<	c #A7DBAD",
"[	c #34CE40",
"}	c #2FE03E",
"|	c #39EB4A",
"1	c #3AEB4A",
"2	c #39EA49",
"3	c #30E03E",
"4	c #32CF3D",
"5	c #B1DEB7",
"6	c #34CE3F",
"7	c #35E644",
"8	c #23C92F",
"9	c #D1E4D6",
"0	c #5ED167",
"a	c #31E140",
"b	c #3EC948",
"c	c #C3E2C8",
"d	c #3CED4C",
"e	c #A6DCAC",
"f	c #74D47C",
"g	c #35E545",
"h	c #4BC954",
"i	c #3CCA46",
"j	c #37E846",
"k	c #2DC938",
"l	c #22C62D",
"m	c #24CD30",
"n	c #3BEC4C",
"o	c #22CB2F",
"p	c #36E846",
"q	c #2BC836",
"r	c #73D47B",
"s	c #2EDE3C",
"t	c #35E544",
"u	c #4CCA55",
"v	c #C4E2C9",
"w	c #21D02D",
"x	c #22D12F",
"y	c #A2DBA8",
"z	c #5CD165",
"A	c #2FDF3E",
"B	c #31E240",
"C	c #C2E1C7",
"D	c #34E544",
"E	c #34E443",
"F	c #2ECC39",
"G	c #C9E3CE",
"H	c #B6DFBB",
"I	c #23C82E",
"J	c #32E240",
"K	c #2CCB38",
"L	c #B5DFBB",
"M	c #D4E5D9",
"N	c #40C949",
"O	c #23D230",
"P	c #3CC846",
"Q	c #A9DCAF",
"R	c #54CB5D",
"S	c #36CB40",
"T	c #29CD36",
"U	c #29CC35",
"V	c #32CA3D",
"W	c #53CB5C",
"X	c #A3DBAA",
"........................",
"++++++++++++++++++++++++",
"@@@@@@@@@@@@@@@@@@@@@@@@",
"@@@@@@@@@@@@@@@@@@@@@@@@",
"@@@@@@@@@@@@@@@@@@@@@@@@",
"@@@@@@@@@@@@@@@@@@@@@@@@",
"@@@@@@@@@@@@@@@@@@@@@@@@",
"@@@@@@@#$%&*=-;>,@@@@@@@",
"@@@@@@')!~{]]^/(_:@@@@@@",
"@@@@@<[}|1222211345@@@@@",
"@@@@:672222222222789@@@@",
"@@@#0}222222222221ab@@@@",
"@@@c!1222222222222d!e@@@",
"@@@f~12222222222222gh@@@",
"@@@ij222222222222221k@@@",
"@@@ld222222222222221m@@@",
"@@@ln222222222222221o@@@",
"@@@ip222222222222221q@@@",
"@@@rs12222222222222tu@@@",
"@@@vw1222222222222]xy@@@",
"@@@,zA222222222221Bb@@@@",
"@@@@C6D1222222221EFG@@@@",
"@@@@@HIad222222]JKL@@@@@",
"@@@@@@MNwD2222DOPG@@@@@@",
"@@@@@@@@QRSTUVWX@@@@@@@@",
"@@@@@@@@@@@@@@@@@@@@@@@@",
"@@@@@@@@@@@@@@@@@@@@@@@@",
"@@@@@@@@@@@@@@@@@@@@@@@@",
"@@@@@@@@@@@@@@@@@@@@@@@@",
"@@@@@@@@@@@@@@@@@@@@@@@@",
"@@@@@@@@@@@@@@@@@@@@@@@@",
"@@@@@@@@@@@@@@@@@@@@@@@@",
"@@@@@@@@@@@@@@@@@@@@@@@@",
"@@@@@@@@@@@@@@@@@@@@@@@@",
"@@@@@@@@@@@@@@@@@@@@@@@@",
"@@@@@@@@@@@@@@@@@@@@@@@@"};
