/* XPM */
static char * close_pressed_xpm[] = {
"23 30 84 1",
" 	c None",
".	c #E1E2E2",
"+	c #ECEDF0",
"@	c #E8E9EC",
"#	c #E6DCE0",
"$	c #E1AAB1",
"%	c #DB6670",
"&	c #D73F4B",
"*	c #D6313F",
"=	c #DB6872",
"-	c #E2AFB6",
";	c #E6DCDF",
">	c #E1A2A9",
",	c #D74450",
"'	c #D52735",
")	c #D84753",
"!	c #E1A4AB",
"~	c #DD7C86",
"{	c #D52A38",
"]	c #DF8F97",
"^	c #E7E8EB",
"/	c #E0A0A7",
"(	c #D52A37",
"_	c #E3B8BE",
":	c #D7414E",
"<	c #C32432",
"[	c #BF2331",
"}	c #D62735",
"|	c #BD2331",
"1	c #C32331",
"2	c #D63542",
"3	c #E7E5E8",
"4	c #E1A5AC",
"5	c #BE2331",
"6	c #9E1D2B",
"7	c #B82230",
"8	c #D82836",
"9	c #D72735",
"0	c #BA2331",
"a	c #9C1D2B",
"b	c #C12331",
"c	c #DF9199",
"d	c #DA5F6A",
"e	c #B62230",
"f	c #9F1D2B",
"g	c #B92230",
"h	c #9D1D2B",
"i	c #BC2230",
"j	c #D84652",
"k	c #D63644",
"l	c #B72230",
"m	c #A11E2C",
"n	c #AE202E",
"o	c #D63340",
"p	c #D52937",
"q	c #AD202E",
"r	c #9C1C2A",
"s	c #AA1F2D",
"t	c #D52F3C",
"u	c #BB2331",
"v	c #A81F2D",
"w	c #D63341",
"x	c #D42735",
"y	c #BA2230",
"z	c #E1A8AF",
"A	c #BC2331",
"B	c #DF9098",
"C	c #E6DADE",
"D	c #C12432",
"E	c #D52E3C",
"F	c #E0A1A8",
"G	c #E2B1B7",
"H	c #DF8D95",
"I	c #DF929A",
"J	c #E3B6BB",
"K	c #D5303E",
"L	c #D52D3A",
"M	c #E2B2B8",
"N	c #E7E2E6",
"O	c #DE8C95",
"P	c #D84955",
"Q	c #D63643",
"R	c #D63744",
"S	c #D84B57",
".......................",
"+++++++++++++++++++++++",
"@@@@@@@@@@@@@@@@@@@@@@@",
"@@@@@@@@@@@@@@@@@@@@@@@",
"@@@@@@@@@@@@@@@@@@@@@@@",
"@@@@@@@@@@@@@@@@@@@@@@@",
"@@@@@@@#$%&*&=-;@@@@@@@",
"@@@@@@>,''''''')!@@@@@@",
"@@@@@~{'''''''''{]^@@@@",
"@@@@/(''''''''''''_@@@@",
"@@@;:''<[}''''|1}'23@@@",
"@@@4'''5678'90ab}''c@@@",
"@@@d'''}efg90hi''''j@@@",
"@@@k''''8lmn6g'''''o@@@",
"@@@p'''''9qrs8'''''t@@@",
"@@@k''''9u6vf7}''''w@@@",
"@@@d'''xyhg8lfu'''')@@@",
"@@@z'''ia|''}A6A}''B@@@",
"@@@C:''DD'''''A<}'E@@@@",
"@@@@Fp'}}'''''9}''G@@@@",
"@@@@@H'''''''''''I@@@@@",
"@@@@@@JK'''''''LM@@@@@@",
"@@@@@@@NOPQERS]@@@@@@@@",
"@@@@@@@@@@@@@@@@@@@@@@@",
"@@@@@@@@@@@@@@@@@@@@@@@",
"@@@@@@@@@@@@@@@@@@@@@@@",
"@@@@@@@@@@@@@@@@@@@@@@@",
"@@@@@@@@@@@@@@@@@@@@@@@",
"@@@@@@@@@@@@@@@@@@@@@@@",
"@@@@@@@@@@@@@@@@@@@@@@@"};
