/* XPM */
static char * close_prelight_xpm[] = {
"23 30 86 1",
" 	c None",
".	c #E1E2E2",
"+	c #ECEDF0",
"@	c #E8E9EC",
"#	c #E6DBDE",
"$	c #E1A4AB",
"%	c #DC616B",
"&	c #DA3A47",
"*	c #D92F3C",
"=	c #D93B47",
"-	c #DC626C",
";	c #E2A9AF",
">	c #E6DADE",
",	c #DF9CA4",
"'	c #DE4954",
")	c #E64048",
"!	c #EE4B52",
"~	c #F35157",
"{	c #F45358",
"]	c #EE4B51",
"^	c #E63F48",
"/	c #DE4B56",
"(	c #DF9EA6",
"_	c #DB747E",
":	c #E43E47",
"<	c #F14E55",
"[	c #F25056",
"}	c #F25157",
"|	c #F04D54",
"1	c #E53E48",
"2	c #DE8992",
"3	c #E7E8EB",
"4	c #F15056",
"5	c #E23843",
"6	c #E2B5BB",
"7	c #D53E47",
"8	c #D03B44",
"9	c #F45157",
"0	c #CC3842",
"a	c #D93845",
"b	c #E7E4E7",
"c	c #9E1D2A",
"d	c #C4343E",
"e	c #F75358",
"f	c #F65258",
"g	c #C6353F",
"h	c #9B1A29",
"i	c #F35257",
"j	c #E64049",
"k	c #DE8D96",
"l	c #9F1D2B",
"m	c #C5353F",
"n	c #9C1B2A",
"o	c #CD3943",
"p	c #F35057",
"q	c #D74450",
"r	c #A21F2C",
"s	c #B42A36",
"t	c #9E1C2B",
"u	c #C73540",
"v	c #DB3946",
"w	c #9A1A28",
"x	c #AE2733",
"y	c #F75359",
"z	c #DC3944",
"A	c #D93A47",
"B	c #DA3B46",
"C	c #CA3841",
"D	c #D74653",
"E	c #CD3942",
"F	c #9D1C2A",
"G	c #CD3A43",
"H	c #E63F49",
"I	c #DE9098",
"J	c #D84048",
"K	c #F14F54",
"L	c #D83440",
"M	c #F14F55",
"N	c #E13843",
"O	c #E2B2B8",
"P	c #DF929A",
"Q	c #E2B4BA",
"R	c #D83340",
"S	c #E7E3E6",
"T	c #DB3A46",
"U	c #DC3945",
".......................",
"+++++++++++++++++++++++",
"@@@@@@@@@@@@@@@@@@@@@@@",
"@@@@@@@@@@@@@@@@@@@@@@@",
"@@@@@@@@@@@@@@@@@@@@@@@",
"@@@@@@@@@@@@@@@@@@@@@@@",
"@@@@@@@#$%&*=-;>@@@@@@@",
"@@@@@@,')!~{~]^/(@@@@@@",
"@@@@@_:<[[[[[[}|123@@@@",
"@@@@,:~4[[[[[[4[[56@@@@",
"@@@#'<4789[[[4079|ab@@@",
"@@@$)[[8cde[fgh79ijk@@@",
"@@@%![[9dlmfgno[[[pq@@@",
"@@@&~[[[emrstu~[[[iv@@@",
"@@@*{[[[[fswxy[[[[iz@@@",
"@@@A~[[[fgtxld9[[[iB@@@",
"@@@-][[4gnuydlC4[[[D@@@",
"@@@;^}40hE~[9CFG9iHI@@@",
"@@@>/|[77[[[[4GJ9KL@@@@",
"@@@@(1[99[[[[[99MNO@@@@",
"@@@@@25|i[[[[[iKNP@@@@@",
"@@@@@3Qajpiii[HRO@@@@@@",
"@@@@@@@SkqTUBDI@@@@@@@@",
"@@@@@@@@@@@@@@@@@@@@@@@",
"@@@@@@@@@@@@@@@@@@@@@@@",
"@@@@@@@@@@@@@@@@@@@@@@@",
"@@@@@@@@@@@@@@@@@@@@@@@",
"@@@@@@@@@@@@@@@@@@@@@@@",
"@@@@@@@@@@@@@@@@@@@@@@@",
"@@@@@@@@@@@@@@@@@@@@@@@"};
