/* XPM */
static char * close_active_xpm[] = {
"23 30 84 1",
" 	c None",
".	c #E5E6E7",
"+	c #EBECEE",
"@	c #EAEBED",
"#	c #E8E9EC",
"$	c #E6DCE0",
"%	c #E2ABB1",
"&	c #DD6873",
"*	c #D9424E",
"=	c #D83642",
"-	c #DD6A74",
";	c #E2AFB5",
">	c #E6DBDF",
",	c #E0A1A8",
"'	c #DE4D57",
")	c #E53E48",
"!	c #ED4A51",
"~	c #F25056",
"{	c #F45358",
"]	c #E53E47",
"^	c #DE4F5A",
"/	c #E0A2AA",
"(	c #DB7983",
"_	c #E23C47",
":	c #F14E54",
"<	c #F25156",
"[	c #F04D54",
"}	c #E43F49",
"|	c #DE8D95",
"1	c #E7E8EB",
"2	c #E09FA7",
"3	c #E33C47",
"4	c #F35157",
"5	c #E13842",
"6	c #E3B8BE",
"7	c #DE4B55",
"8	c #DB3B47",
"9	c #E7E4E7",
"0	c #E2A6AC",
"a	c #E63F48",
"b	c #F35257",
"c	c #DE8F97",
"d	c #DC626C",
"e	c #EE4A52",
"f	c #F35156",
"g	c #D74551",
"h	c #DA3B47",
"i	c #F35258",
"j	c #DA3946",
"k	c #D92F3C",
"l	c #DC3945",
"m	c #D93B47",
"n	c #DA3C47",
"o	c #D74653",
"p	c #E2A9AF",
"q	c #E53F48",
"r	c #F25157",
"s	c #DE9098",
"t	c #E6DBDE",
"u	c #F14E55",
"v	c #D93340",
"w	c #DFA0A7",
"x	c #E43E47",
"y	c #F24F56",
"z	c #E13843",
"A	c #E2B1B7",
"B	c #DE8C94",
"C	c #E13742",
"D	c #F04E54",
"E	c #F14F55",
"F	c #DF939A",
"G	c #E3B6BC",
"H	c #D93642",
"I	c #E74049",
"J	c #D8313F",
"K	c #E2B2B9",
"L	c #E7E2E6",
"M	c #DE8B94",
"N	c #D74956",
"O	c #DC3F4A",
"P	c #DD3945",
"Q	c #DC3F4B",
"R	c #D84B57",
"S	c #DD8E96",
".......................",
"+++++++++++++++++++++++",
"@@@@@@@@@@@@@@@@@@@@@@@",
"#######################",
"#######################",
"#######################",
"#######$%&*=*-;>#######",
"######,')!~{~!]^/######",
"#####(_:~~~~~~<[}|1####",
"####234~~~~~~~~~~56####",
"###>7:~~~~~~~~~~~[89###",
"###0a~~~~~~~~~~~~bac###",
"###de~~~~~~~~~~~~~fg###",
"###h4~~~~~~~~~~~~~ij###",
"###k{~~~~~~~~~~~~~bl###",
"###m4~~~~~~~~~~~~~bn###",
"###de~~~~~~~~~~~~~~o###",
"###pqr~~~~~~~~~~~bas###",
"###t7[~~~~~~~~~~~uv####",
"####wx~~~~~~~~~~yzA####",
"#####BCD4~~~~~bECF#####",
"######GHIf444~IJK######",
"#######LMNOPQRS########",
"#######################",
"#######################",
"#######################",
"#######################",
"#######################",
"#######################",
"#######################"};
