/* XPM */
static char * hide_active_xpm[] = {
"23 30 84 1",
" 	c None",
".	c #E1E2E2",
"+	c #ECEDF0",
"@	c #E8E9EC",
"#	c #E7E4DE",
"$	c #E4D1A6",
"%	c #E0B95A",
"&	c #DFAB2E",
"*	c #DEA620",
"=	c #DFAA2E",
"-	c #E0B95C",
";	c #E4D2AA",
">	c #E6E3DD",
",	c #E2CC9B",
"'	c #E2B23A",
")	c #EDB526",
"!	c #F5BF30",
"~	c #FAC536",
"{	c #FCC738",
"]	c #ECB425",
"^	c #E3B23B",
"/	c #E1CC9B",
"(	c #DEBD70",
"_	c #E8B125",
":	c #F8C334",
"<	c #FBC637",
"[	c #F8C233",
"}	c #E9B227",
"|	c #E0C483",
"1	c #E7E8EB",
"2	c #E2CC9A",
"3	c #E7AE20",
"4	c #E4D5B3",
"5	c #E6E4DD",
"6	c #E2B138",
"7	c #F9C334",
"8	c #F8C234",
"9	c #DFA824",
"0	c #E7E6E5",
"a	c #E3D0A1",
"b	c #EDB426",
"c	c #E0B755",
"d	c #F6BF31",
"e	c #FBC536",
"f	c #DBA830",
"g	c #DEA928",
"h	c #FBC738",
"i	c #E0A924",
"j	c #DFA419",
"k	c #FCC839",
"l	c #E3AB21",
"m	c #DEA827",
"n	c #E0AA26",
"o	c #E0B754",
"p	c #F6C030",
"q	c #DCA932",
"r	c #E4D1A5",
"s	c #ECB426",
"t	c #FBC737",
"u	c #EDB527",
"v	c #E0C484",
"w	c #E6E3DC",
"x	c #E3B238",
"y	c #DEA51B",
"z	c #E1CC9A",
"A	c #E9B226",
"B	c #E8AE20",
"C	c #E3D2AB",
"D	c #E0C585",
"E	c #E6AD1F",
"F	c #F9C435",
"G	c #E7AE1F",
"H	c #E1C788",
"I	c #DEA721",
"J	c #EDB628",
"K	c #FAC637",
"L	c #EEB627",
"M	c #DDA41A",
"N	c #E3D3AD",
"O	c #DCAA36",
"P	c #E1AB29",
"Q	c #E3AB24",
"R	c #E1AB2A",
"S	c #DCAC39",
".......................",
"+++++++++++++++++++++++",
"@@@@@@@@@@@@@@@@@@@@@@@",
"@@@@@@@@@@@@@@@@@@@@@@@",
"@@@@@@@@@@@@@@@@@@@@@@@",
"@@@@@@@@@@@@@@@@@@@@@@@",
"@@@@@@@#$%&*=-;>@@@@@@@",
"@@@@@@,')!~{~!]^/@@@@@@",
"@@@@@(_:~~~~~~<[}|1@@@@",
"@@@@2_<~~~~~~~~~~34@@@@",
"@@@567~~~~~~~~~~~890@@@",
"@@@ab~~~~~~~~~~~~<)|@@@",
"@@@cd~~~~~~~~~~~~~ef@@@",
"@@@g<~~~~~~~~~~~~~hi@@@",
"@@@jk~~~~~~~~~~~~~<l@@@",
"@@@m<~~~~~~~~~~~~~hn@@@",
"@@@op~~~~~~~~~~~~~~q@@@",
"@@@rs<~~~~~~~~~~~tuv@@@",
"@@@wx[~~~~~~~~~~~7y@@@@",
"@@@@zA~~~~~~~~~~~BC@@@@",
"@@@@@DE:<~~~~~<FGH@@@@@",
"@@@@@@4IJK<<<~LMN@@@@@@",
"@@@@@@@0|OPQRSv@@@@@@@@",
"@@@@@@@@@@@@@@@@@@@@@@@",
"@@@@@@@@@@@@@@@@@@@@@@@",
"@@@@@@@@@@@@@@@@@@@@@@@",
"@@@@@@@@@@@@@@@@@@@@@@@",
"@@@@@@@@@@@@@@@@@@@@@@@",
"@@@@@@@@@@@@@@@@@@@@@@@",
"@@@@@@@@@@@@@@@@@@@@@@@"};
