/* XPM */
static char * hide_prelight_xpm[] = {
"23 30 93 2",
"  	c None",
". 	c #E1E2E2",
"+ 	c #ECEDF0",
"@ 	c #E8E9EC",
"# 	c #E6E3DC",
"$ 	c #E3CF9F",
"% 	c #E0B652",
"& 	c #DEA825",
"* 	c #DFA317",
"= 	c #DEA724",
"- 	c #E4D0A3",
"; 	c #E6E3DB",
"> 	c #E1CB96",
", 	c #E2B036",
"' 	c #EDB526",
") 	c #F6C031",
"! 	c #FBC637",
"~ 	c #FCC839",
"{ 	c #ECB526",
"] 	c #E3B137",
"^ 	c #E1CA97",
"/ 	c #DEBB6A",
"( 	c #E9B126",
"_ 	c #F9C334",
": 	c #FAC536",
"< 	c #F8C334",
"[ 	c #EAB327",
"} 	c #E0C27E",
"| 	c #E7E8EB",
"1 	c #E1CB97",
"2 	c #E8AE20",
"3 	c #E4D4AF",
"4 	c #E6E3DD",
"5 	c #DFA721",
"6 	c #E7E6E5",
"7 	c #EEB627",
"8 	c #E0C382",
"9 	c #E0B754",
"0 	c #DBA82F",
"a 	c #DEA928",
"b 	c #F9C436",
"c 	c #E4AD2E",
"d 	c #E3AC2E",
"e 	c #E6AF2F",
"f 	c #F7C235",
"g 	c #FBC738",
"h 	c #E0A924",
"i 	c #DFA419",
"j 	c #FDC939",
"k 	c #F4BE34",
"l 	c #945613",
"m 	c #945513",
"n 	c #9E6016",
"o 	c #EBB431",
"p 	c #FCC738",
"q 	c #E3AB22",
"r 	c #DEA927",
"s 	c #F4BF34",
"t 	c #F2BC33",
"u 	c #F3BE34",
"v 	c #E0AA25",
"w 	c #E0B755",
"x 	c #F5C031",
"y 	c #FAC636",
"z 	c #DBA933",
"A 	c #E4D1A5",
"B 	c #ECB426",
"C 	c #FBC737",
"D 	c #EDB527",
"E 	c #E0C484",
"F 	c #E3B239",
"G 	c #F8C333",
"H 	c #F9C335",
"I 	c #DEA51C",
"J 	c #E1CB99",
"K 	c #EAB227",
"L 	c #F9C535",
"M 	c #E7AE20",
"N 	c #E3D3AD",
"O 	c #E0C381",
"P 	c #E1C687",
"Q 	c #E4D5B2",
"R 	c #DFA824",
"S 	c #EDB627",
"T 	c #FBC536",
"U 	c #E3D3AC",
"V 	c #E7E7E6",
"W 	c #E0C585",
"X 	c #DBA932",
"Y 	c #E0AA24",
"Z 	c #E2AA23",
"` 	c #E0A925",
" .	c #DBAA33",
". . . . . . . . . . . . . . . . . . . . . . . ",
"+ + + + + + + + + + + + + + + + + + + + + + + ",
"@ @ @ @ @ @ @ @ @ @ @ @ @ @ @ @ @ @ @ @ @ @ @ ",
"@ @ @ @ @ @ @ @ @ @ @ @ @ @ @ @ @ @ @ @ @ @ @ ",
"@ @ @ @ @ @ @ @ @ @ @ @ @ @ @ @ @ @ @ @ @ @ @ ",
"@ @ @ @ @ @ @ @ @ @ @ @ @ @ @ @ @ @ @ @ @ @ @ ",
"@ @ @ @ @ @ @ # $ % & * = % - ; @ @ @ @ @ @ @ ",
"@ @ @ @ @ @ > , ' ) ! ~ ! ) { ] ^ @ @ @ @ @ @ ",
"@ @ @ @ @ / ( _ : : : : : : ! < [ } | @ @ @ @ ",
"@ @ @ @ 1 ( ! : : : : : : : : : : 2 3 @ @ @ @ ",
"@ @ @ 4 , < : : : : : : : : : : : < 5 6 @ @ @ ",
"@ @ @ $ ' : : : : : : : : : : : : ! 7 8 @ @ @ ",
"@ @ @ 9 ) : : : : : : : : : : : : : ! 0 @ @ @ ",
"@ @ @ a ! b c d d d d d d d d d e f g h @ @ @ ",
"@ @ @ i j k l m l l l l l l l l n o p q @ @ @ ",
"@ @ @ r ! : s t t t t t t t t t u : g v @ @ @ ",
"@ @ @ w x : : y y y y y y y y y : : : z @ @ @ ",
"@ @ @ A B ! : : : : : : : : : : : C D E @ @ @ ",
"@ @ @ # F G : : : : : : : : : : : H I @ @ @ @ ",
"@ @ @ @ J K : : : : : : : : : : L M N @ @ @ @ ",
"@ @ @ @ @ O 2 < ! : : : : : g _ M P @ @ @ @ @ ",
"@ @ @ @ @ | Q R S T g ! g : { I U @ @ @ @ @ @ ",
"@ @ @ @ @ @ @ V W X Y Z `  .W @ @ @ @ @ @ @ @ ",
"@ @ @ @ @ @ @ @ @ @ @ @ @ @ @ @ @ @ @ @ @ @ @ ",
"@ @ @ @ @ @ @ @ @ @ @ @ @ @ @ @ @ @ @ @ @ @ @ ",
"@ @ @ @ @ @ @ @ @ @ @ @ @ @ @ @ @ @ @ @ @ @ @ ",
"@ @ @ @ @ @ @ @ @ @ @ @ @ @ @ @ @ @ @ @ @ @ @ ",
"@ @ @ @ @ @ @ @ @ @ @ @ @ @ @ @ @ @ @ @ @ @ @ ",
"@ @ @ @ @ @ @ @ @ @ @ @ @ @ @ @ @ @ @ @ @ @ @ ",
"@ @ @ @ @ @ @ @ @ @ @ @ @ @ @ @ @ @ @ @ @ @ @ "};
