/* XPM */
static char * hide_pressed_xpm[] = {
"23 30 59 1",
" 	c None",
".	c #E1E2E2",
"+	c #ECEDF0",
"@	c #E8E9EC",
"#	c #E9E6E1",
"$	c #EDDDB2",
"%	c #F4D071",
"&	c #F7C94C",
"*	c #F9C63F",
"=	c #F3D173",
"-	c #EDDEB5",
";	c #E9E6DF",
">	c #EEDCAA",
",	c #F7CA52",
"'	c #FAC536",
")	c #F7CA53",
"!	c #EEDCAB",
"~	c #F1D588",
"{	c #F9C539",
"]	c #F0D897",
"^	c #E8E8EB",
"/	c #EEDBA9",
"(	c #F9C538",
"_	c #ECDFBC",
":	c #E9E6E0",
"<	c #F7CA50",
"[	c #F8C742",
"}	c #E8E8E7",
"|	c #EEDCAD",
"1	c #F4CF6C",
"2	c #F7CA51",
"3	c #F8C846",
"4	c #E4AD2E",
"5	c #E2AB2E",
"6	c #E3AB2E",
"7	c #E5AF2F",
"8	c #F8C235",
"9	c #F8C740",
"0	c #FBC636",
"a	c #F3BD34",
"b	c #955713",
"c	c #9E6117",
"d	c #E9B331",
"e	c #F9C63B",
"f	c #F8C845",
"g	c #FAC636",
"h	c #EFB932",
"i	c #F1BC33",
"j	c #EDDDB0",
"k	c #EDDEB6",
"l	c #F0D899",
"m	c #ECDFBD",
"n	c #F9C53A",
"o	c #EDDEB7",
"p	c #F0D896",
"q	c #F6CB56",
"r	c #F8C744",
"s	c #F9C63D",
"t	c #F6CB58",
".......................",
"+++++++++++++++++++++++",
"@@@@@@@@@@@@@@@@@@@@@@@",
"@@@@@@@@@@@@@@@@@@@@@@@",
"@@@@@@@@@@@@@@@@@@@@@@@",
"@@@@@@@@@@@@@@@@@@@@@@@",
"@@@@@@@#$%&*&=-;@@@@@@@",
"@@@@@@>,''''''')!@@@@@@",
"@@@@@~{'''''''''{]^@@@@",
"@@@@/(''''''''''''_@@@@",
"@@@:<'''''''''''''[}@@@",
"@@@|''''''''''''''']@@@",
"@@@1'''''''''''''''2@@@",
"@@@3''456666666678'9@@@",
"@@@{0abbbbbbbbbbcd'e@@@",
"@@@f'gahhhhhhhhhi0'[@@@",
"@@@1''00000000000'')@@@",
"@@@j''''''''''''''']@@@",
"@@@;<'''''''''''''e@@@@",
"@@@@/(''''''''''''k@@@@",
"@@@@@]'''''''''''l@@@@@",
"@@@@@@m9'''''''no@@@@@@",
"@@@@@@@}pqrsrt]@@@@@@@@",
"@@@@@@@@@@@@@@@@@@@@@@@",
"@@@@@@@@@@@@@@@@@@@@@@@",
"@@@@@@@@@@@@@@@@@@@@@@@",
"@@@@@@@@@@@@@@@@@@@@@@@",
"@@@@@@@@@@@@@@@@@@@@@@@",
"@@@@@@@@@@@@@@@@@@@@@@@",
"@@@@@@@@@@@@@@@@@@@@@@@"};
