/* XPM */
static char * hide_inactive_xpm[] = {
"23 30 47 1",
" 	c None",
".	c #E1E2E2",
"+	c #ECEDF0",
"@	c #E8E9EC",
"#	c #E4E5E8",
"$	c #D7D8DA",
"%	c #C6C6C7",
"&	c #BCBCBC",
"*	c #B8B8B8",
"=	c #C6C7C8",
"-	c #D8D9DB",
";	c #D4D5D7",
">	c #C0C0C0",
",	c #BFBFBF",
"'	c #C4C4C4",
")	c #C7C7C7",
"!	c #C8C8C8",
"~	c #BEBEBE",
"{	c #C0C0C1",
"]	c #C9CACB",
"^	c #BDBDBD",
"/	c #C6C6C6",
"(	c #CFCFD1",
"_	c #E7E8EB",
":	c #D4D4D6",
"<	c #DADBDD",
"[	c #BFBFC0",
"}	c #BABABA",
"|	c #E6E7EA",
"1	c #D6D6D8",
"2	c #CFD0D2",
"3	c #C4C4C5",
"4	c #BCBCBD",
"5	c #BBBBBB",
"6	c #B7B7B7",
"7	c #D7D7D9",
"8	c #D0D0D2",
"9	c #E4E5E7",
"0	c #B7B8B8",
"a	c #D9D9DB",
"b	c #D0D1D3",
"c	c #B9B9B9",
"d	c #D9DADC",
"e	c #CECFD0",
"f	c #BDBDBE",
"g	c #BBBCBC",
"h	c #BDBEBE",
".......................",
"+++++++++++++++++++++++",
"@@@@@@@@@@@@@@@@@@@@@@@",
"@@@@@@@@@@@@@@@@@@@@@@@",
"@@@@@@@@@@@@@@@@@@@@@@@",
"@@@@@@@@@@@@@@@@@@@@@@@",
"@@@@@@@#$%&*&=-#@@@@@@@",
"@@@@@@;>,')!)'~{;@@@@@@",
"@@@@@]^/)))))))/~(_@@@@",
"@@@@:^!))))))))))&<@@@@",
"@@@#[/)))))))))))/}|@@@",
"@@@1,))))))))))))!,2@@@",
"@@@3'))))))))))))))4@@@",
"@@@}!)))))))))))))!5@@@",
"@@@6!)))))))))))))!5@@@",
"@@@}!)))))))))))))!5@@@",
"@@@3'))))))))))))))4@@@",
"@@@7,))))))))))))!,8@@@",
"@@@9>/))))))))))))0@@@@",
"@@@@:~)))))))))))&a@@@@",
"@@@@@(5/!)))))!)&b@@@@@",
"@@@@@@<c>!!)!)>6d@@@@@@",
"@@@@@@@|efg5&h(@@@@@@@@",
"@@@@@@@@@@@@@@@@@@@@@@@",
"@@@@@@@@@@@@@@@@@@@@@@@",
"@@@@@@@@@@@@@@@@@@@@@@@",
"@@@@@@@@@@@@@@@@@@@@@@@",
"@@@@@@@@@@@@@@@@@@@@@@@",
"@@@@@@@@@@@@@@@@@@@@@@@",
"@@@@@@@@@@@@@@@@@@@@@@@"};
