/* XPM */
static char * maximize_pressed_xpm[] = {
"23 30 88 1",
" 	c None",
".	c #E1E2E2",
"+	c #ECEDF0",
"@	c #E8E9EC",
"#	c #DBE6DF",
"$	c #A6DCAC",
"%	c #5ACE62",
"&	c #2DC637",
"*	c #1EC329",
"=	c #2CC537",
"-	c #59CE61",
";	c #D8E6DD",
">	c #9CDAA3",
",	c #35C73F",
"'	c #13C11E",
")	c #34C73E",
"!	c #9BDAA1",
"~	c #74D37C",
"{	c #17C122",
"]	c #16C121",
"^	c #82D589",
"/	c #E7E8EB",
"(	c #13BF1E",
"_	c #13BF1D",
":	c #ADDEB3",
"<	c #33C73D",
"[	c #13C21E",
"}	c #12AF19",
"|	c #0E890D",
"1	c #0E890E",
"2	c #11AA17",
"3	c #1FC32A",
"4	c #E1E7E5",
"5	c #A2DBA8",
"6	c #13C01E",
"7	c #109F14",
"8	c #0B7307",
"9	c #0B7206",
"0	c #0D820C",
"a	c #13C51F",
"b	c #81D588",
"c	c #56CD5F",
"d	c #11B019",
"e	c #13C21F",
"f	c #0F9912",
"g	c #0B7507",
"h	c #0B7407",
"i	c #0D810B",
"j	c #31C63B",
"k	c #2AC534",
"l	c #0E8B0E",
"m	c #109C13",
"n	c #14C51F",
"o	c #0F9A12",
"p	c #0B7207",
"q	c #1BC226",
"r	c #0F9711",
"s	c #10A015",
"t	c #0F9712",
"u	c #0F9A13",
"v	c #0D820B",
"w	c #109D13",
"x	c #14C41F",
"y	c #10A214",
"z	c #13C31F",
"A	c #32C63C",
"B	c #80D587",
"C	c #D9E6DE",
"D	c #11AB17",
"E	c #0C7F0A",
"F	c #0C7C09",
"G	c #0C7C0A",
"H	c #0F9C13",
"I	c #18C122",
"J	c #13C61F",
"K	c #14C61F",
"L	c #13C41F",
"M	c #87D68F",
"N	c #84D68B",
"O	c #B3DFB9",
"P	c #20C32A",
"Q	c #A8DDAE",
"R	c #E2E8E7",
"S	c #85D68C",
"T	c #39C843",
"U	c #24C42E",
"V	c #3BC844",
"W	c #82D68A",
".......................",
"+++++++++++++++++++++++",
"@@@@@@@@@@@@@@@@@@@@@@@",
"@@@@@@@@@@@@@@@@@@@@@@@",
"@@@@@@@@@@@@@@@@@@@@@@@",
"@@@@@@@@@@@@@@@@@@@@@@@",
"@@@@@@@#$%&*=-$;@@@@@@@",
"@@@@@@>,''''''')!@@@@@@",
"@@@@@~{''''''''']^/@@@@",
"@@@@>{'''(_____''':@@@@",
"@@@#<'''[}||||12['34@@@",
"@@@5'''['6788890a''b@@@",
"@@@c''6d6'efgh8ia''j@@@",
"@@@k''_lm['nohpia''*@@@",
"@@@q''_l8rn'[s8ia'']@@@",
"@@@k''_l8ht[''uva''3@@@",
"@@@c''_l8hhw['xyz''A@@@",
"@@@$''_l9888rn'z'''B@@@",
"@@@C)''DEFFFGHz'''I/@@@",
"@@@@>]'[JKKKKL''''$@@@@",
"@@@@@M'''''''''''N@@@@@",
"@@@@@@OP'''''''IQ@@@@@@",
"@@@@@@@RSTUqUVW/@@@@@@@",
"@@@@@@@@@@@@@@@@@@@@@@@",
"@@@@@@@@@@@@@@@@@@@@@@@",
"@@@@@@@@@@@@@@@@@@@@@@@",
"@@@@@@@@@@@@@@@@@@@@@@@",
"@@@@@@@@@@@@@@@@@@@@@@@",
"@@@@@@@@@@@@@@@@@@@@@@@",
"@@@@@@@@@@@@@@@@@@@@@@@"};
