/* XPM */
static char * maximize_active_xpm[] = {
"23 30 82 1",
" 	c None",
".	c #E1E2E2",
"+	c #ECEDF0",
"@	c #E8E9EC",
"#	c #DBE6DF",
"$	c #A5DDAC",
"%	c #5CD166",
"&	c #30CA3B",
"*	c #23C72E",
"=	c #2FCA3A",
"-	c #5BD064",
";	c #A7DDAD",
">	c #D8E5DD",
",	c #9BD9A2",
"'	c #3CCF48",
")	c #29D837",
"!	c #33E342",
"~	c #39EA49",
"{	c #3BED4C",
"]	c #33E442",
"^	c #28D836",
"/	c #3CD047",
"(	c #98D89F",
"_	c #71D179",
":	c #27D434",
"<	c #37E847",
"[	c #3AEB4A",
"}	c #37E746",
"|	c #29D736",
"1	c #80D487",
"2	c #E7E8EB",
"3	c #3AEC4B",
"4	c #23D230",
"5	c #ADDEB3",
"6	c #3BCF46",
"7	c #24C92F",
"8	c #E1E7E5",
"9	c #A3DCA9",
"0	c #3AEB4B",
"a	c #2ADA39",
"b	c #7ED486",
"c	c #59D062",
"d	c #30C53A",
"e	c #2DC939",
"f	c #3AEB49",
"g	c #3BEC4B",
"h	c #26CB31",
"i	c #20C72B",
"j	c #3CED4C",
"k	c #21CC2D",
"l	c #39EB4A",
"m	c #27CB32",
"n	c #3AEA4A",
"o	c #32C63C",
"p	c #29D836",
"q	c #7FD487",
"r	c #D9E6DE",
"s	c #36E746",
"t	c #38E948",
"u	c #1CC627",
"v	c #9BD9A1",
"w	c #29D535",
"x	c #24D330",
"y	c #A6DCAC",
"z	c #87D68E",
"A	c #21D02E",
"B	c #38EA48",
"C	c #86D78D",
"D	c #B4DFB9",
"E	c #25C82F",
"F	c #2ADA38",
"G	c #2BDB39",
"H	c #1BC526",
"I	c #A8DDAE",
"J	c #E2E7E6",
"K	c #84D48B",
"L	c #39C743",
"M	c #2BCC37",
"N	c #26CD32",
"O	c #2CCC37",
"P	c #3BC744",
"Q	c #81D489",
".......................",
"+++++++++++++++++++++++",
"@@@@@@@@@@@@@@@@@@@@@@@",
"@@@@@@@@@@@@@@@@@@@@@@@",
"@@@@@@@@@@@@@@@@@@@@@@@",
"@@@@@@@@@@@@@@@@@@@@@@@",
"@@@@@@@#$%&*=-;>@@@@@@@",
"@@@@@@,')!~{~]^/(@@@@@@",
"@@@@@_:<~~~~~~[}|12@@@@",
"@@@@,:3~~~~~~~~~~45@@@@",
"@@@#6<~~~~~~~~~~~<78@@@",
"@@@9)~~~~~~~~~~~~0ab@@@",
"@@@c]~~~~~~~~~~~~~3d@@@",
"@@@ef~~~~~~~~~~~~~gh@@@",
"@@@ij~~~~~~~~~~~~~0k@@@",
"@@@el~~~~~~~~~~~~~gm@@@",
"@@@c]~~~~~~~~~~~~~no@@@",
"@@@;p[~~~~~~~~~~~3aq@@@",
"@@@r/s~~~~~~~~~~~tu2@@@",
"@@@@vw~~~~~~~~~~~xy@@@@",
"@@@@@zA<3~~~~~0B4C@@@@@",
"@@@@@@DEF[[[[~GHI@@@@@@",
"@@@@@@@JKLMNOPQ@@@@@@@@",
"@@@@@@@@@@@@@@@@@@@@@@@",
"@@@@@@@@@@@@@@@@@@@@@@@",
"@@@@@@@@@@@@@@@@@@@@@@@",
"@@@@@@@@@@@@@@@@@@@@@@@",
"@@@@@@@@@@@@@@@@@@@@@@@",
"@@@@@@@@@@@@@@@@@@@@@@@",
"@@@@@@@@@@@@@@@@@@@@@@@"};
