/* XPM */
static char * maximize_prelight_xpm[] = {
"23 30 138 2",
"  	c None",
". 	c #E1E2E2",
"+ 	c #ECEDF0",
"@ 	c #E8E9EC",
"# 	c #D9E6DE",
"$ 	c #9EDCA5",
"% 	c #54CF5E",
"& 	c #29C833",
"* 	c #1AC727",
"= 	c #27C832",
"- 	c #52CF5B",
"; 	c #9FDBA5",
"> 	c #D7E5DC",
", 	c #96D89D",
"' 	c #38CF43",
") 	c #29D937",
"! 	c #34E443",
"~ 	c #3AEB4A",
"{ 	c #3CED4C",
"] 	c #34E543",
"^ 	c #38D043",
"/ 	c #94D79B",
"( 	c #6DD074",
"_ 	c #28D535",
": 	c #37E847",
"< 	c #39EA49",
"[ 	c #37E846",
"} 	c #2AD737",
"| 	c #7CD484",
"1 	c #E7E8EB",
"2 	c #98D99E",
"3 	c #28D434",
"4 	c #38E848",
"5 	c #38E647",
"6 	c #38E747",
"7 	c #23D231",
"8 	c #ABDDB1",
"9 	c #DAE6DE",
"0 	c #3AD045",
"a 	c #3AEC4A",
"b 	c #2ECE39",
"c 	c #179218",
"d 	c #179117",
"e 	c #179118",
"f 	c #2BC635",
"g 	c #22C92E",
"h 	c #DFE7E3",
"i 	c #A1DCA8",
"j 	c #39EA4A",
"k 	c #39E949",
"l 	c #25B72C",
"m 	c #0B7306",
"n 	c #0A7206",
"o 	c #0A7005",
"p 	c #138913",
"q 	c #3BF04C",
"r 	c #3AEB4B",
"s 	c #2BDB39",
"t 	c #7DD384",
"u 	c #58D062",
"v 	c #33E443",
"w 	c #22AF28",
"x 	c #0B7508",
"y 	c #0B7407",
"z 	c #128711",
"A 	c #3BF04D",
"B 	c #30C63A",
"C 	c #2DC938",
"D 	c #19961B",
"E 	c #23B129",
"F 	c #3CF14D",
"G 	c #3BEC4B",
"H 	c #26CB31",
"I 	c #1FC72A",
"J 	c #19971B",
"K 	c #0A7106",
"L 	c #20A825",
"M 	c #3BEF4C",
"N 	c #26B82D",
"O 	c #0B7206",
"P 	c #21CD2D",
"Q 	c #2DC939",
"R 	c #39EB4A",
"S 	c #19981B",
"T 	c #0B7507",
"U 	c #39EB49",
"V 	c #23B028",
"W 	c #128812",
"X 	c #27CB32",
"Y 	c #5AD062",
"Z 	c #33E342",
"` 	c #0B7307",
" .	c #24B32A",
"..	c #27BC2F",
"+.	c #3AED4B",
"@.	c #32C63C",
"#.	c #A6DDAC",
"$.	c #28D836",
"%.	c #097005",
"&.	c #20A925",
"*.	c #3BEE4B",
"=.	c #3AEC4B",
"-.	c #2ADB38",
";.	c #7FD487",
">.	c #D8E5DD",
",.	c #3DD048",
"'.	c #36E746",
").	c #2CC836",
"!.	c #138812",
"~.	c #128510",
"{.	c #128611",
"].	c #24B42A",
"^.	c #38E948",
"/.	c #1CC728",
"(.	c #9BD9A1",
"_.	c #29D637",
":.	c #3AEE4B",
"<.	c #38EA48",
"[.	c #24D331",
"}.	c #A6DCAD",
"|.	c #83D48A",
"1.	c #23D22F",
"2.	c #37E746",
"3.	c #24D330",
"4.	c #84D68B",
"5.	c #B1DEB7",
"6.	c #27C932",
"7.	c #2ADA38",
"8.	c #1EC82A",
"9.	c #A8DDAE",
"0.	c #E3E8E7",
"a.	c #86D58D",
"b.	c #34C63D",
"c.	c #26CA32",
"d.	c #25CD31",
"e.	c #27CB33",
"f.	c #35C63E",
"g.	c #84D58B",
". . . . . . . . . . . . . . . . . . . . . . . ",
"+ + + + + + + + + + + + + + + + + + + + + + + ",
"@ @ @ @ @ @ @ @ @ @ @ @ @ @ @ @ @ @ @ @ @ @ @ ",
"@ @ @ @ @ @ @ @ @ @ @ @ @ @ @ @ @ @ @ @ @ @ @ ",
"@ @ @ @ @ @ @ @ @ @ @ @ @ @ @ @ @ @ @ @ @ @ @ ",
"@ @ @ @ @ @ @ @ @ @ @ @ @ @ @ @ @ @ @ @ @ @ @ ",
"@ @ @ @ @ @ @ # $ % & * = - ; > @ @ @ @ @ @ @ ",
"@ @ @ @ @ @ , ' ) ! ~ { ~ ] ) ^ / @ @ @ @ @ @ ",
"@ @ @ @ @ ( _ : < < < < < < ~ [ } | 1 @ @ @ @ ",
"@ @ @ @ 2 3 ~ < < 4 5 5 5 5 6 < < 7 8 @ @ @ @ ",
"@ @ @ 9 0 : < < a b c d e e d f a : g h @ @ @ ",
"@ @ @ i ) j < a < k l m n n o p q r s t @ @ @ ",
"@ @ @ u v < 4 b 4 < a w x y n z A < ~ B @ @ @ ",
"@ @ @ C ~ < 6 D E ~ < F w y n z A < G H @ @ @ ",
"@ @ @ I { < 6 J K L M < a N O z A < r P @ @ @ ",
"@ @ @ Q R < 6 S n T L ~ < U V W A < G X @ @ @ ",
"@ @ @ Y Z < 6 J n y `  .< < M ..+.< ~ @.@ @ @ ",
"@ @ @ #.$.~ 6 S %.n n K &.*.< +.< =.-.;.@ @ @ ",
"@ @ @ >.,.'.< ).!.~.~.~.{.].+.< < ^./.1 @ @ @ ",
"@ @ @ @ (._.< a q A A A A :.< < <.[.}.@ @ @ @ ",
"@ @ @ @ @ |.1.2.G < < < < < =.4 3.4.@ @ @ @ @ ",
"@ @ @ @ @ 1 5.6.) j G =.G < 7.8.9.@ @ @ @ @ @ ",
"@ @ @ @ @ @ @ 0.a.b.c.d.e.f.g.@ @ @ @ @ @ @ @ ",
"@ @ @ @ @ @ @ @ @ @ @ @ @ @ @ @ @ @ @ @ @ @ @ ",
"@ @ @ @ @ @ @ @ @ @ @ @ @ @ @ @ @ @ @ @ @ @ @ ",
"@ @ @ @ @ @ @ @ @ @ @ @ @ @ @ @ @ @ @ @ @ @ @ ",
"@ @ @ @ @ @ @ @ @ @ @ @ @ @ @ @ @ @ @ @ @ @ @ ",
"@ @ @ @ @ @ @ @ @ @ @ @ @ @ @ @ @ @ @ @ @ @ @ ",
"@ @ @ @ @ @ @ @ @ @ @ @ @ @ @ @ @ @ @ @ @ @ @ ",
"@ @ @ @ @ @ @ @ @ @ @ @ @ @ @ @ @ @ @ @ @ @ @ "};
